<?xml version="1.0" encoding="UTF-8"?>
<svg id="Layer_2" xmlns="http://www.w3.org/2000/svg" version="1.1" viewBox="0 0 59 87.7">
  <!-- Generator: Adobe Illustrator 29.3.1, SVG Export Plug-In . SVG Version: 2.1.0 Build 151)  -->
  <defs>
    <style>
      .st0 {
        fill: #fff;
      }
    </style>
  </defs>
  <g id="_x33_pjSmW">
    <g>
      <path class="st0" d="M4.1,79.7c-2.2-2.1-3.9-4.8-4-7.9s0-5.6,0-8.4c.7-5,4.7-8.5,8.9-10.8,9.8-5.3,24-5.8,34.5-2.7,6.1,1.8,13.6,5.7,15.2,12.4,0,.3.2.8.2,1.1.2,2.6-.2,5.5,0,8.2-.1,4.8-3.9,8.6-7.8,10.9-9.9,5.9-24.9,6.5-35.8,3.2-3.9-1.2-8.3-3.2-11.2-6ZM27.6,51.6c-6.9.3-16.9,2.5-21.2,8.3-3.9,5.2-.4,10.1,4.2,13,8.5,5.3,21.8,5.7,31.2,2.9,5-1.5,12.6-5.5,12.3-11.6-.2-4.3-4.7-7.6-8.2-9.2-5.5-2.6-12.2-3.5-18.3-3.3ZM8.6,55.2s.1,0,.1,0c-.1-.1-.2,0-.3,0-4.9,2.9-8.6,8.2-5.2,13.8,1.2,1.9,3.3,3.8,5.2,4.9s.3.2.4,0c-.1,0-.1,0-.2-.1-4.5-3-7.4-8-4.8-13.4,1.1-2.2,2.8-3.7,4.7-5.3ZM52.9,56.9c-.6-.5-1.1-.9-1.7-1.3s-.7-.4-.7-.4h0c1.4,1.1,2.8,2.3,3.8,3.7,2.1,3.1,2.5,6.6.8,9.9-1,2-2.7,3.5-4.4,4.8l-.4.3c.1,0,.2,0,.2-.1,2-1.1,4.5-3.4,5.6-5.4,2.4-4.5.5-8.6-3.1-11.6Z"/>
      <path class="st0" d="M43,59.7c3.9,3.6,2.6,8.1-1.4,10.8-6.1,4-16.9,4.1-23.2.6s-4.6-3.4-4.7-6.1c-.3-4.3,4.1-7,7.7-8.2,6.3-2.1,16.6-1.7,21.7,3ZM42,67.7c2.8-2.9,1.2-5.8-1.8-7.7-5.7-3.5-15.8-3.5-21.5,0-3.4,2.1-4.6,5.4-1.1,8.3,3.8,3.1,10.6,3.9,15.3,3.2s7-1.6,9.1-3.8Z"/>
      <path class="st0" d="M50.1,63.6c.5,0,1,.2,1.2.7.2.9-.5,3.7-1.2,4.3s-1.4.2-1.5-.5.3-1,.5-1.5c.3-.8.3-1.3.4-2.2s.3-.7.7-.8Z"/>
      <path class="st0" d="M41.1,54.3c.4,0,1.2.3,1.6.5s.7.3,1,.4,1.3.6,1.5.9c.3.5,0,1.4-.6,1.4s-1.2-.4-1.8-.7-1.4-.5-1.9-.8c-.8-.4-.7-1.6.2-1.8Z"/>
      <path class="st0" d="M13.9,55.9c.3-.2,1.3-.7,1.7-.9.6-.3,1.3-.5,1.9-.8,1,0,1.5,1.3.6,1.8s-1.4.6-1.9.8-1.3.8-1.8.7-1-.9-.6-1.4.2-.3.3-.3Z"/>
      <path class="st0" d="M48.9,58.9c.4.4,1.3,1.5,1.4,2.1.2.8-.6,1.4-1.3,1.1s-1-1.3-1.3-1.6-1.3-1.2-1.4-1.6c-.2-.7.3-1.3,1-1.2s1.2.9,1.6,1.3Z"/>
      <path class="st0" d="M47.2,69.5c.9,0,1.3,1,.7,1.6s-2.3,1.8-3,2.1c-1.1.5-1.9-.7-1.1-1.5.6-.4,1.2-.7,1.8-1.1s1.1-1,1.4-1,.2,0,.3,0Z"/>
      <path class="st0" d="M11.4,57.7c.7-.2,1.4.5,1.2,1.2s-1,1.1-1.3,1.5-.6,1-1,1.4c-.5.7-1.7.5-1.8-.4s.4-1.1.7-1.4,1.6-2.1,2.2-2.2Z"/>
      <path class="st0" d="M11.5,69.6c.1,0,.4,0,.5,0,.3,0,1.2.9,1.5,1.1s1.7,1,1.8,1.2c.5.8-.3,1.8-1.2,1.4s-1.8-1.1-2.3-1.5-.9-.7-1-.9c-.2-.5,0-1.2.6-1.4Z"/>
      <path class="st0" d="M17.5,72.9c.4,0,1.5.4,2,.6s1.9.4,2.3.9,0,1.2-.4,1.4-1.7-.2-2.3-.4-.8-.3-1.1-.4-.8-.1-1-.6,0-1.3.7-1.4Z"/>
      <path class="st0" d="M41.2,72.9c1,0,1.4,1.2.6,1.7s-1.5.6-1.9.7-1.2.4-1.6.4c-.7.1-1.4-.3-1.3-1.1s.9-.7,1.5-.9c.8-.2,1.7-.6,2.4-.8s.2,0,.2,0Z"/>
      <path class="st0" d="M25,52.9c.4.5.2,1.3-.4,1.5s-1.2.2-1.7.3-1.5.4-2,.4-.7-.1-.8-.4c-.3-.7,0-1.2.6-1.4s2.6-.6,3.4-.7.7,0,.9.3Z"/>
      <path class="st0" d="M34.5,52.6c.2,0,.5,0,.7.1.9.1,1.7.2,2.6.4s1.2.3,1.2,1.2-.5.8-.9.8-1.4-.3-1.9-.4-1.5-.1-1.9-.4c-.8-.4-.5-1.6.4-1.8Z"/>
      <path class="st0" d="M34.5,74.6c.9,0,1.4.8.9,1.5s-.9.4-1.4.4c-.8,0-2,.3-2.8.2s-.4-.1-.6-.2c-.6-.4-.4-1.5.2-1.7s1.5,0,2.1-.1,1-.2,1.6-.2Z"/>
      <path class="st0" d="M24.2,74.6c.5,0,1.3.2,1.8.2s1.4,0,2.1.1c1,.4.7,1.8-.3,1.9s-2-.1-2.8-.2-1.1,0-1.5-.5,0-1.3.7-1.4Z"/>
      <path class="st0" d="M8.5,63.6c.3,0,.8.2,1,.5s.1,1.1.2,1.5.2.7.3,1c.2.6.8,1.1.3,1.8s-.9.5-1.3.2-.6-.9-.7-1.2c-.3-.8-.7-2.3-.5-3.2s.5-.6.8-.6Z"/>
      <path class="st0" d="M31.9,53.9c-.3.4-.9.2-1.3.2-.7,0-1.5,0-2.2,0s-.5,0-.7,0c-1.1-.1-1.1-1.7,0-1.9.8-.1,2.3,0,3.2,0s1.3.2,1.3,1-.1.5-.2.7Z"/>
      <path class="st0" d="M31.1,69.1c.3.3.4.8,0,1.1-.6.8-2.9.8-3.5,0s.1-1.1.6-1.3.4,0,.5-.2v-1.9c0-.3-.7-.3-.9-.4-.5-.1-1.2-.5-1.6-.8s-.2-.3-.3-.3h-4.4c-.9.4-2,.6-3,.1s-.8-1.2,0-1.6,2.1-.2,3.1.2c1.3,0,2.7.1,4,0,.4,0,.4-.2.6-.4.4-.4,1.1-.6,1.6-.8s.8,0,.9-.3v-2c0-.2-.5-.3-.7-.4-.7-.4-.9-1-.1-1.5s2.1-.5,2.9,0,.6.4.5.9-.4.6-.8.7-.4,0-.5.2v2c0,.2.7.2.9.2.4,0,.9.3,1.3.5s.6.6.8.6c1.3,0,2.8.1,4.1,0s.6-.2.9-.3c.7-.2,1.8-.2,2.4.3s.5,1.1-.2,1.4-1.6.4-2.2.2-.5-.3-1.3-.3c-1.3,0-2.6,0-3.9,0-.5.5-1.2.9-1.9,1.1s-.9.1-1,.3v2c0,.1.8.3,1,.5Z"/>
    </g>
  </g>
  <path class="st0" d="M53.8,4.3c0-2.4-1.9-4.2-4.3-4.3-2.3-.1-4.3,2-4.3,4.3,0,1.1,0,2.2,0,3.3,0,.5,0,1-.1,1.6,0,.1-.1,1.2-.1,1-.2,1.7-.6,3.3-1.1,4.9-.2.8-.5,1.6-.8,2.5-.1.3-.3.7-.4,1,0,0,0,.1,0,.2,0,.1-.1.3-.2.4-.6,1.2-1.2,2.4-1.8,3.5-.6,1-1.2,1.9-1.9,2.8,0,0,0,0,0,0,0,0,0,0,0,0,0,0,0,0,0,0,0,0-.1.2-.2.2,0,0-.1.2-.1.2,0,.1-.2.2-.3.3h-3.7c4.2-1.9,7.1-6.1,7.1-10.9s-5.4-12-12-12-12,5.4-12,12,2.9,9.1,7.1,10.9h-4.2c-.2,0-.3,0-.4,0-1,0-2.1.5-2.9,1.2-2.5,2.1-4.5,5.1-6.2,7.9-3.7,6.3-5.5,13.5-5.6,20.8,2.8-2.3,6.5-3.4,8.8-3.9,0-.2,0-.4,0-.4.2-1.7.6-3.3,1.1-4.9.2-.8.5-1.6.8-2.5.1-.3.3-.7.4-1,0,0,0-.1,0-.2,0,0,0-.1.1-.2.2-.4.4-.8.6-1.2l-.8,9.9,16.8-1.3,9.9,1.9-1.5-17.4c.2-.1.4-.3.6-.5,2.5-2.1,4.5-5.1,6.2-7.9,3.9-6.8,5.8-14.6,5.6-22.4ZM29.5,45.8l-3-5.3,2.1-9.6-.9-1.7,1-1.7h1.9l.9,1.7-.9,1.7,2.1,9.6-3,5.3Z"/>
</svg>