<svg width="16" height="16" viewBox="0 0 16 16" fill="none" xmlns="http://www.w3.org/2000/svg">
<g clip-path="url(#clip0_2094_83)">
<path d="M3.6276 1.9082C2.70713 1.9082 1.96094 2.6544 1.96094 3.57487V12.3198C1.96094 13.2403 2.70713 13.9865 3.6276 13.9865H12.3726C13.293 13.9865 14.0392 13.2403 14.0392 12.3198V3.57487C14.0392 2.65439 13.293 1.9082 12.3726 1.9082H3.6276ZM8.00083 11.4025C6.09271 11.4025 4.54647 9.85622 4.54647 7.9481C4.54647 6.03998 6.09271 4.49374 8.00083 4.49374C9.90896 4.49374 11.4552 6.03998 11.4552 7.9481C11.4552 9.85622 9.90746 11.4025 8.00083 11.4025Z" fill="#B1BAD2"/>
<path d="M13.555 5.6989L8.6094 0.752808C8.27236 0.415731 7.72483 0.415731 7.38778 0.752808L5.69842 2.4437L2.44352 5.6989L0.752785 7.38979C0.415738 7.72687 0.415738 8.27444 0.752785 8.61152L2.44352 10.3024L5.69842 13.5562L7.38916 15.2471C7.7262 15.5842 8.27373 15.5842 8.61078 15.2471L15.2472 8.61015C15.5842 8.27307 15.5842 7.72549 15.2472 7.38841L13.555 5.6989ZM7.83076 11.1733C6.15378 11.0853 4.8221 9.69842 4.8221 7.99928C4.8221 6.24373 6.24458 4.82112 7.99997 4.82112C9.69896 4.82112 11.0857 6.1543 11.1737 7.83005C11.27 9.70943 9.70721 11.271 7.83076 11.1733Z" fill="#B1BAD2"/>
<path d="M7.99762 9.63C8.89808 9.63 9.62805 8.90003 9.62805 7.99957C9.62805 7.09911 8.89808 6.36914 7.99762 6.36914C7.09716 6.36914 6.36719 7.09911 6.36719 7.99957C6.36719 8.90003 7.09716 9.63 7.99762 9.63Z" fill="#B1BAD2"/>
</g>
<defs>
<clipPath id="clip0_2094_83">
<rect width="16" height="16" fill="white"/>
</clipPath>
</defs>
</svg>
