<?xml version="1.0" encoding="UTF-8"?>
<svg id="Layer_1" data-name="Layer 1" xmlns="http://www.w3.org/2000/svg" version="1.1" viewBox="0 0 1194 558">
  <defs>
    <style>
      .cls-1 {
        fill: #fff;
        stroke-width: 0px;
      }
    </style>
  </defs>
  <path class="cls-1" d="M579.9,539.8c-72,0-139.8-28.1-190.7-79s-79-118.7-79-190.7,28.1-139.8,79-190.7C440.2,28.5,507.9.4,579.9.4s139.8,28.1,190.7,79c50.9,50.9,79,118.7,79,190.7s-28.1,139.8-79,190.7-118.7,79-190.7,79ZM579.9,136.4c-73.7,0-133.7,60-133.7,133.7s60,133.7,133.7,133.7,133.7-60,133.7-133.7-60-133.7-133.7-133.7Z"/>
  <path class="cls-1" d="M1142.5,558c-19.8,0-38.6-11.5-47-30.8l-174.4-401.2c-11.3-26,.6-56.1,26.6-67.4,26-11.3,56.1.6,67.4,26.6l174.4,401.2c11.3,26-.6,56.1-26.6,67.4-6.7,2.9-13.6,4.3-20.4,4.3ZM225.9,558c-19.8,0-38.6-11.5-47-30.8L4.4,126c-11.3-26,.6-56.1,26.6-67.4,26-11.3,56.1.6,67.4,26.6l174.4,401.2c11.3,26-.6,56.1-26.6,67.4-6.7,2.9-13.6,4.3-20.4,4.3Z"/>
</svg>