<?xml version="1.0" encoding="UTF-8"?>
<svg id="Layer_1" data-name="Layer 1" xmlns="http://www.w3.org/2000/svg" version="1.1" viewBox="0 0 770 734">
  <defs>
    <style>
      .cls-1 {
        fill: #fff;
        stroke-width: 0px;
      }
    </style>
  </defs>
  <polygon class="cls-1" points="236.4 271.6 236.4 271.6 238.4 273.2 236.4 271.6"/>
  <path class="cls-1" d="M767,424.7c-5.2-30.9-19.9-60.3-41.6-88-34.4-43.9-69.7-87.1-105-130.2h0s0,0,0,0h0s0,0,0,0h0s0,0,0,0h0c-20.4-25-40.9-50-61.2-75.2h0c-23.1-28.7-45.9-57.6-68.8-86.6h0c-7.2-9.2-14.5-18.3-21.7-27.5-3.8-4.9-7.7-9.7-11.6-14.6l-2,1.6h0s2-1.6,2-1.6l-1.9-2.4-2,2.3c-1.4,1.5-2.7,3-3.9,4.3h0s0,0,0,0h0s0,0,0,0h0c-2.3,2.5-4.5,4.9-6.4,7.4h0s-1.9,2.4-1.9,2.4h0c-17.1,21.3-34.2,42.7-51.4,64-42.6,53-85.2,106-127.4,159.3l-62.1-88.1c-2.6-3.7-6.8-5.9-11.3-5.9s-8.7,2.2-11.3,5.9L2.9,399c-3.4,4.8-3.4,11.1,0,15.9l174.3,247.4c2.6,3.7,6.8,5.9,11.3,5.9s8.7-2.2,11.3-5.9l44.3-62.8c3.5,1.2,7.1,2.2,10.8,3.1h0c29,7.2,57.5,7.7,85.4,2.9-5.1,13.1-11.3,25.5-17.6,37.9h0c-9.4,18.2-19.3,36.2-29.5,54.8h0s0,0,0,0l-3.4,6.1c-3.3,6-6.7,12.2-10,18.4l2.3,1.2h0s-2.3-1.2-2.3-1.2l-2.1,3.8h353.6l-2.1-3.8-2.3,1.2h0s2.3-1.2,2.3-1.2c-3.4-6.2-6.7-12.3-10-18.4l-3.4-6.1h0s0,0,0,0c-10.2-18.5-20.1-36.5-29.5-54.8h0c-6.4-12.5-12.6-25-17.8-38.3,17.4,2.9,35.1,3.8,53.1,2.5h0c58.6-4.3,104-30.3,130.1-85.7h0c15.9-33.8,20.2-66.2,15-97.2ZM295.5,699.4h0s0,0,0,0h0ZM295.5,699.4l-1.3-.7h-.2c0,0,1.1.5,1.1.5l.4.2h0ZM613.7,699.4h0s0,0,0,0h0s0,0,0,0ZM619.2,207.3h0s-.8.7-.8.7h0s0,0,0,0l.8-.6h0ZM618.5,208h0s0,0,0,0h0s0,0,0,0ZM618.4,208h0s0,0,0,0h0s0,0,0,0h0ZM451.1,8.4h0s0,0,0,0h0ZM188.5,630.3L31.1,406.9l157.4-223.4,157.4,223.4-157.4,223.4ZM255.4,600.5v-.3c0,0,0,0,0,0v.3ZM260,582.2h0s.3-1.3.3-1.3h0s-.3,1.3-.3,1.3ZM730.7,511.9h0s2.3,1.1,2.3,1.1h0s0,0,0,0l-2.3-1.1h0c-11,23.4-25.8,40.5-44.2,52.3-18.4,11.7-40.5,18.2-66.3,20.1h0l.2,2.4h0c0,0-.2-2.4-.2-2.4h0c-18.4,1.3-36.3.1-54.3-3.5-11-3.9-17.1-6.4-26.9-12l-4.4-2.5.6,5c.4,3.2.8,5.6,1.4,8.2h0l.7,3.1c6.3,27.6,17.6,50.6,28.4,71.5h0s0,0,0,0l2.3-1.2h0s0,0,0,0l-2.3,1.2h0c8.4,16.3,17.2,32.5,26.2,48.8h-274.4c9-16.3,17.8-32.5,26.2-48.8h0s0,0,0,0h0c10.4-20.2,21.3-42.4,27.7-68.8l.2-.2.2-.7c.2-.9.4-1.6.5-2.4.8-3.7,1.4-6.3,1.9-10.4l.6-5-4.4,2.5c-9.8,5.6-15.9,8.1-26.8,12-27.4,5.7-55,5.7-82.9-1.2h0s0,0,0,0c-.7-.2-1.5-.4-2.2-.6l33.5-47.6c2.2.7,4.4,1.3,6.7,1.9,16.9,4.2,38.6,3.8,62.8-1,14.7-3,30.5-7.6,45.4-13.5l29.4-11.5-3.2,31.4c-1.7,16.2-4.4,37.3-10.8,57.1-7.2,22.3-17.1,38.3-26.6,53.8-3.9,6.3-7.5,12.2-10.9,18.4h139.5c-37.7-53-43.9-89.7-47.6-128.9l-3.1-31.9,29.6,12.4c22.6,9.4,56,20.7,86.3,20.7s40.5-3.6,55-11.2c17-9,30.4-24.1,40.8-46.1,11.5-24.3,11.8-49.2.7-76.1-10-24.3-28.2-47.3-41.5-64.2l-.2-.3c-24.2-30.6-49.5-61.3-74-91l-.4-.5c-14-17-28.5-34.6-42.6-51.9-16.3-20.1-32.7-40.6-48.5-60.5l-.2-.2c-7.7-9.7-15.5-19.5-23.4-29.3-.6.6-1.3,1.4-2.1,2.3-1.6,1.7-3.8,4.1-5.2,5.8h0c-12.5,15.5-25,30.9-37.6,46.4-30.4,37.5-61.8,76.2-92.7,114.8-4.8,6-9.9,12.2-14.7,18.2l-.2.2c0,0,0,.1-.1.2l-26.2-37.3c.2-.2.3-.4.5-.6,43.4-54.8,87.2-109.3,131.1-163.9,15.6-19.4,31.2-38.8,46.8-58.3,5.8,7.4,11.6,14.7,17.4,22.1,23,29.1,45.9,58.1,69,86.9l2-1.6-.2.2-1.7,1.4h0s0,0,0,0h0c20.5,25.4,41,50.5,61.5,75.6,35.2,43,70.2,85.9,104.5,129.7l2-1.6s0,0,0,0l-2,1.6c20,25.5,32.6,51.3,37,77.4,4.3,25.9.9,53.5-13.1,83.3h0ZM565.2,583.2h0s0,0,0,0h0ZM369,584h0s0,0,0,0h0ZM369.1,583.9h0s.2.2.2.2l-.2-.2Z"/>
</svg>