<?xml version="1.0" encoding="UTF-8"?>
<svg id="Layer_1" data-name="Layer 1" xmlns="http://www.w3.org/2000/svg" xmlns:xlink="http://www.w3.org/1999/xlink" version="1.1" viewBox="0 0 626 782">
  <defs>
    <style>
      .cls-1 {
        clip-path: url(#clippath);
      }

      .cls-2 {
        fill: none;
      }

      .cls-2, .cls-3 {
        stroke-width: 0px;
      }

      .cls-3 {
        fill: #fff;
        fill-rule: evenodd;
      }
    </style>
    <clipPath id="clippath">
      <rect class="cls-2" x=".7" y=".7" width="624.5" height="780.5"/>
    </clipPath>
  </defs>
  <g class="cls-1">
    <path class="cls-3" d="M72,134.6c19.5,12.4,36.8,28.3,51.3,47.4,15.6,20.5,27.8,43.2,36.2,67.6.3.8.6,1.6,1,2.4h0c.1.2.2.4.3.6l3.5,6.8,7.9-4.5c8.5-5.3,17.8-10.2,28.2-14.9,12.3-5.5,24.9-10.1,37.5-13.5,8.4-2.3,18.3-4.7,28.5-6,9.4-1.1,18.8-2.1,28.2-3h0c1.9-.2,5.1-.5,7.1-3.4,2-2.9,1.3-6,.7-8h0c-1.4-5.6-2.7-11.2-4-16.8-1.9-8.6-3.2-17.8-3.8-27.3v-1c-.5-7-1-14.2-1-21.2,0-4.4.3-8.8.7-13.3h0c0-.9.1-1.8.2-2.7l.3-4.2c.6-9.2,2.3-18.7,4.9-29.2,3-12.1,6.8-22.8,11.4-32.8.4-.8.6-1.8,1-3.2l3.5-11.6-11.6,3.4c-2.5.7-4.5,1.9-6.4,3.6l-3.1,2.9h-.1c0,.1,0,.1,0,.1h0c-3.7,3.4-7.2,6.7-10.7,10.3-8.3,8.6-15.4,18.8-21.8,31.3-5.8,11.4-10,23.9-12.6,37.3-.6,2.9-1,6-1.4,9.2-13.2-30-27-57.2-41.9-82.9-11.8-20.4-23.6-37.8-35.8-53.4-2.7-4-6.2-4.5-8.6-4.2l-4.6,1.1-1,4.4c0,.1,0,.3,0,.4-.1.6-.2,1.2-.2,1.9l-.3,5.6c-.3,4.7-.5,9.5-.6,14.3-.3,17.3.2,31.7,1.3,45.2l.4,4.3c.1,1.7.3,3.3.4,5h0c.4,5.1.9,10.2,1.4,15.2.8,7.9,1.7,16.4,2.9,24.6,1.2,9,2.7,18.2,4.3,27.4.6,3.7,1.3,7.4,2,11.1h0s0,0,0,0h0s0,0,0,0h0s0,0,0,0h0c.3,1.7.6,3.3.9,5-11.7-13.3-25.4-24.1-41-32.3-16.4-8.6-34.5-13.8-53.5-15.1-5.5-.9-8,2.5-8.8,4l-1.4,1.6,1,5.7,7,4.4h.2ZM71.6,413.1l9.7-2.9c6.6-1.9,13.1-3.9,19.7-5.7,4.1-1.2,7-3.4,8.9-7.1,11.2-21.2,25.6-40.6,43-57.6,13.1-12.9,27.7-24.1,43.4-33.5,18.6-11.1,38.6-19.5,59.5-25,10.1-2.7,19.3-4.4,28-5.5l4-.5c4.8-.6,9.4-1.2,13.9-1.3h3.1c11.1-.2,21.6-.3,32.2.8,11.8,1.3,21.5,2.9,30.6,4.9,13,3.1,25.8,7.2,38,12.5,9.2,4,17.1,8,24.5,12.3,1.6.9,5.3,3,10.1,1.6,6.1-1.8,12.3-3.6,18.4-5.4l12.1-3.5c.9-.3,1.9-.7,2.9-1.2l10.3-5-8.5-6.4c-63.6-48.1-149.2-64.6-229.2-44-84.1,21.7-153.4,83-185.2,164.1l-4,10.1,11.7-1.4h0c.8,0,1.8-.1,2.9-.5h0ZM525.1,614l30.8-8.9c.6-.2,1.2-.3,2-.4h0s0,0,0,0c0,0,.2,0,.3,0l10.5-1.5-2.7,10.3v.2c0,0,0,0,0,0h0s0,0,0,0h0s0,0,0,0c-.2.9-.4,1.7-.8,2.5-10.9,25.2-25.5,48.6-43.5,69.5-17.6,20.4-37.6,38-59.8,52.2-19.2,12.4-39.9,22.3-61.3,29.4-12.9,4.3-26.5,7.7-40.2,10.1-6,1-12,1.8-17.8,2.4l-4.2.5c-3.8.5-7.2.7-10.4.7h-25.1c-8.6,0-16.9-1.2-25-2.3h0s-.5,0-.5,0l-4.7-.6c-8.5-1.2-17.6-3-28.6-6-11.6-3-23.2-7-34.6-11.7-16.7-6.9-32.9-15.8-48.1-26.1-.9-.6-1.8-1.2-2.5-1.8-1.1-.9-1.7-1.9-2-2.5l-4.5-7.2,12.2-4.1c.6-.2,1.2-.4,1.8-.5h.1s0,0,0,0c2.1-.6,4.2-1.3,6.3-1.9,1.1-.3,2.3-.6,3.4-.9h0s0,0,0,0h0c1.1-.3,2.2-.6,3.3-.9l.7-.2h0c4-1.1,8.1-2.2,12.1-3.6,5.1-1.7,9.1-.3,11.9,1.1l2.7,1.3c7.4,3.6,15.1,7.3,22.8,10.6,13.2,5.6,27.5,9.7,43.8,12.5,5.8,1,11.8,1.7,17.7,2.3l5.3.6c11.4,1.2,22.9.8,31.7.3,7.7-.5,15.1-1.5,24.1-2.8,17.3-2.5,34.7-7.6,53-15.4,21.4-9.1,41.3-21.5,59.1-36.7,21.2-18.1,38.7-39.5,52.1-63.6,1.9-3.2,4.7-5.5,8.4-6.6ZM196.2,682c.4,1,.9,1.9,1.4,2.7l1.8,3,40-11.7,2.2-14.7c1.4-9.4,2.7-18.6,4.2-27.8.6-3.5,1.1-7,1.6-10.6v-.9c1-5.7,1.9-11.4,2.9-17.2,4.2,11.1,8.4,22.3,12.4,33.2.5,1.3,1,2.6,1.5,3.9,2.6,7.1,5.3,14.3,8,21.5l1,2.8,16.4-4.8c2-.6,4-1.2,6-1.7h0c4.6-1.3,9.1-2.7,13.7-3.9,3.1-.9,4.9-2.9,5.3-6,.6-4.2,1.3-8.5,2-12.7.2-1.4.5-2.8.7-4.2l16.9-103.9c.1-.9.2-1.8.3-2.9l.5-5.5-4.9.8c-.6,0-1,.1-1.3.3l-6.2,1.8c-5.6,1.6-11.2,3.2-16.8,4.9-1.3.4-2.5.7-3.8,1.1-4.9,1.4-5.8,3.1-6.2,7.9-.3,3.1-.6,6.3-1,9.4h0s0,.2,0,.2c-.3,3.2-.6,6.4-1,9.6l-.8,7.8h0c-.4,3.5-.8,7-1.1,10.5l-2.4,24.7h0s0,0,0,0h0c-.3,3.3-.6,6.6-1,9.9l-10.1-28.4-12.5-35.2c-1.3-3.7-3.2-4.7-7-3.7-1.4.4-2.7.8-4,1.1h0c-1,.3-2,.6-3.1.9l-21,6.1c-3.1.9-4.9,2.9-5.3,5.8-.2,1.5-.4,2.9-.6,4.4v.6c0,0-2.8,18.8-2.8,18.8-.6,4-1.2,8-1.7,12-.6,4-1.1,8-1.7,12-.8,5.8-1.7,11.6-2.6,17.4-.4,2.9-.9,5.8-1.3,8.7v.6l-19.9-63c-1.4-4.6-3.8-5.9-8.4-4.5l-5.8,1.7c-3.4,1-6.7,2-10.1,3-3.4,1-6.8,2-10.1,3-.8.3-1.6.6-2.1,1l-3.2,1.6,25.4,67.4,15.8,41.5ZM482.3,601.6l-19.2-20.2v-.3c-.7-.8-1.5-1.7-2.3-2.5h0c-.7-.8-1.5-1.5-2.2-2.3l-23.7-24.7.3,2.8c.4,4.2.8,8.4,1.2,12.5.4,4,.7,8,1.1,12h0c.4,4,.7,8,1.1,12.1l1.4,15.8c.1,1.7.3,3.3.5,4.9.5,3.4-1.1,5.9-4.3,6.8l-28.5,8.2-1.3-1.1c-2.4-2.1-2.4-4.9-2.4-6.6v-1c-.6-5.3-1.1-10.6-1.6-16l-.8-8.8c-.4-4.7-.9-9.3-1.4-14v-1.3c-.4-2.6-.7-5.3-.9-8-.2-2.4-.5-4.9-.7-7.3-.1-1.5-.2-2.9-.4-4.4-.1-1.5-.2-3-.4-4.4-.2-2.6-.4-5.2-.6-7.8l-3.1-32.9c0-.8-.1-1.6-.2-2.4,0-.7,0-1.5-.2-2.3v-1.4c-.1-2.9,1.4-5,4.3-5.8,8.6-2.5,17.2-4.9,25.8-7.5,2.5-.8,4.7-.1,6.5,1.8l47.6,50.4-.3-3.5c-.3-3.9-.6-7.9-1-11.7l-1.2-11.1c-.4-3.4-.8-6.9-1.1-10.4-.3-3.6-.6-7.2-.9-10.8l-.6-6.9c0-.3,0-.6-.1-1,0-.1,0-.2,0-.4h0c0-.4,0-.9-.2-1.3,0-.2,0-.4,0-.6,0-.2,0-.4,0-.5h0c-.1-.8-.2-1.6-.3-2.4-.3-4.2.7-5.6,4.7-6.8,1-.3,1.9-.6,2.9-.9,4.2-1.3,8.4-2.5,12.6-3.7l9.7-2.9c.8-.3,2.9-.8,4.6.4,1.8,1.2,1.9,3.2,2,4.2l.8,9.3,6.2,68v.5c.2,1.9.4,3.8.5,5.7,0,.6.1,1.3.2,1.9v1.5c.2,1.2.3,2.3.4,3.4l1.6,15.2.6,6.3h0c.1.9.2,1.4.2,1.8.1,4-1,5.6-4.8,6.8-5.6,1.7-11.3,3.3-16.9,4.9h0s0,0,0,0h0s0,0,0,0h0s0,0,0,0h0s-5.1,1.5-5.1,1.5c-.1,0-.2,0-.4.1-.2,0-.5.1-.7.2h0s0,0,0,0h0c-.7.2-1.5.4-2.2.7-1.7.6-4.3.8-6.6-1.8ZM63.7,568.9c20.3-6.5,35.8-17.8,46.1-33.8,11.4-17.7,14.5-37,9.4-57.5-5.3-21.2-20.3-33.9-42.2-35.8-9-.8-18.4.3-29.7,3.6-7.9,2.3-15.8,4.6-23.7,6.9-1.8.5-3.6,1.1-5.4,1.6l-17.5,5.1v5.1c0,.4,0,.8,0,1.2h0c0,1.6,0,3.2.1,4.9.3,3,.7,6,1.1,9,.1,1.1.3,2.2.4,3.3.3,2.1.5,4.1.7,6.2.5,5,.9,10.1,1.3,15.1.2,2,.3,4,.5,6,.2,2,.3,4,.5,6,.8,8.5,1.6,17,2.4,25.5l3.4,36.2h0c.1,1.3.3,3.5,2.1,4.6.8.5,1.6.7,2.5.7s1.9-.3,2.7-.5c4.7-1.4,9.4-2.7,14.1-4,10.3-2.9,20.9-6,31.2-9.2h0ZM44.7,478.6c6.2-1.9,11.9-3.5,18.2-3.6,9.7,0,16.7,5.1,19.6,14.2,3.8,11.9,2.7,22.8-3.3,32.6-4,6.4-9.5,11.2-16.7,14-4,1.6-8.1,2.9-12.2,4.2-.3,0-.6.2-.9.3-.2,0-.4.1-.6.2-.7.2-1.4.4-2.1.6-.5.1-1,.3-1.5.5,0-.4,0-.8-.2-1.1,0-.7-.2-1.4-.2-2.1l-1-11.4c-.4-4.9-.8-9.9-1.3-14.7-.6-6.5-1.2-13-1.9-19.6l-.2-1.8-1-10.6c1.8-.5,3.6-1,5.4-1.6ZM368.4,423.5c-.3,11.3-2.7,21.7-7.3,31.1h0c-10.6,21.4-27.5,36.1-50.4,43.5-6.7,2.1-12.8,3.2-18.3,3.2h-2.1c-12.3.1-22.8-2.9-31.8-9.3-10.1-7.3-16.5-16.9-19.2-28.9-5.4-23.6,0-45.5,16-65,11.4-14,26.1-23.4,43.6-27.8,15.2-3.9,28.6-3,40.9,2.7,12.2,5.7,20.8,15.6,25.4,29.4,2.3,6.9,3.4,14,3.2,21.1ZM303,466.1c6.8-1.6,12.3-4.5,16.9-8.8h0c7.6-7.1,11.2-16.3,11.5-28.8l-.2-1.5c0-.2,0-.5,0-.7h0c-.2-1.4-.4-3-.6-4.5-1-5.6-2.9-9.9-5.9-13.2-3.8-4.2-8.6-6.3-14.5-6.3h-1.4c-3.6.2-7.4,1.3-10.3,2.3-6.4,2.1-11.5,5.5-15.3,10.1-7.6,9.2-10.3,19.6-8.2,32,.5,2.7,1.2,5.4,2.2,7.9,2.5,6.4,7,10.3,13.6,12,3.6.9,7.4.8,12.3-.4ZM164.3,697.9c.6-.2,1.2-.5,1.9-.8l6.6-3.1-33.9-21,1.5-3.7c1.9-4.6,3.6-9,5.3-13.5.9-2.5,1.9-4.9,2.9-7.3v-.2c1.7-3.8,3.3-7.7,4.4-11.8l.3-3.3-4.5-1.2-9.6,2.8h0c-5.8,1.7-11.5,3.4-17.4,5-2.5.7-4.3,2.3-5.3,4.9l-4.9,11.7-10-6.1c-.8-.5-1.6-1-2.4-1.4h0s0,0,0,0c-5.5-3.3-11.1-6.7-16.5-10.2-2.7-1.7-5.1-4-7.3-6.6-1.3-1.6-1.8-3.4-1.5-5.2.4-1.9,1.7-3.7,3.6-4.7,1-.6,2.2-1,3.6-1.5,1.9-.6,3.2,0,4,1.9.2.5.4,1.1.6,1.7h0s0,0,0,0l1.4,4.1,16-4.6c4.2-1.2,8.3-2.5,12.5-3.6,3.3-.9,5-3.4,4.5-6.8-1.4-8.7-5.3-14.9-11.7-19-5.6-3.5-12-4.9-19.7-4.2-11.3,1-21.5,4.6-30.3,10.8-13.6,9.5-19.8,21.2-19,35.6.3,5.4,1.7,9.9,4.2,13.7,1,1.5,2.2,3,3.4,4.5h0s.3.3.3.3c.1.2.3.3.4.5h.1c-.5.6-1,1-1.5,1.6h0c-1.9,1.8-3.8,3.5-5.5,5.5-10.5,12.3-14.5,25.6-11.7,39.7,2.1,10.7,8.5,18.4,18.5,22.1,4.4,1.7,9.1,2.5,14.3,2.5s6.7-.3,10.3-1c14.3-2.5,26.9-7.8,37.6-15.9,3-2.3,5.8-4.9,8.4-7.4l1.9-1.8c1.5,1,3.1,1.9,4.6,2.9l2.9,1.8c2.3,1.5,4.7,1.8,7.3,1,4.4-1.3,8.8-2.6,13.2-3.9h0c2.2-.6,4.4-1.3,6.6-1.9l9.6-2.8v.2ZM93.9,685.4c-6.5,5.4-13,8.4-20,9-3.7.4-8.4-.3-10.1-5.3-1-3.2-.7-6.4,1-9.5,1.3-2.3,3.1-4.5,5-6.8l1.2-1.5c1.4.9,2.9,1.7,4.3,2.6,3.8,2.3,7.6,4.6,11.4,6.9l7.2,4.4h-.1c0,.1,0,.1,0,.1ZM227.3,426.1c4.8,15.8,1.3,30.4-10.5,43.4h0c-2,2.3-4.3,4.1-6.5,5.8l-.4.3-.3.2-.2.2h0s0,0,0,0c-.7.6-1.4,1.1-2.1,1.7l32.8,39.5-7.2,2.3c-1.7.6-3.2,1.1-4.9,1.6l-23,6.7c-4.1,1.2-5.9.6-8.5-2.7l-3.1-3.9c-6.9-8.8-13.9-17.7-20.8-26.6l-.2-.3c-.8-1-1.8-2.2-2.2-2.5,0,0-.4.1-.7.3-.2.1-.5.2-.8.4l4,44.6-34.3,10.1-1.2-2.5c-.6-1-1-1.9-1.2-3-.7-7.1-1.4-14.1-2-21.2h0s0,0,0,0l-9-97.2,3-1.4c.2,0,.5-.2.7-.3h0s0,0,0,0h0c.7-.3,1.4-.6,2-.8l18.4-5.3c8.9-2.5,17.8-5.1,26.6-7.7,8.8-2.7,16.7-3.6,24.1-3,13.7,1.2,23.7,8.9,27.5,21.2ZM162.5,440.2l.8,3.1h0l-.8-3.1ZM176,462.2c2.9-.9,5.6-1.8,8.3-2.9h0c5.6-2.4,8.4-7.1,8.1-13.3-.2-3.5-1.2-5.9-3.1-7.3-1.8-1.2-4.3-1.6-7.1-.8-2.8.7-5.6,1.5-8.4,2.3-1.4.4-2.8.8-4.2,1.2l-5.5,1.6c.1,1.4.2,2.7.3,4h0c.2,2.3.4,4.6.6,6.8.2,2.9.5,5.9.7,8.8,0,.7.2,1.4.3,2.2h0v.3c1.5-.4,3-.8,4.4-1.2l3.8-1.2c.3-.1.7-.2,1-.3.3,0,.5-.2.8-.2h0s0,0,0,0ZM624.2,520.3c-2-8.6-6.8-14.7-14.1-18.2-4.9-2.3-10.5-3.6-17.3-4.1-3-.2-6-.3-9-.4-3,0-6-.2-9.1-.4-3-.2-6.3-.8-10.4-1.8-1.9-.5-3.1-1.5-3.6-3.1-.5-2-.3-3.8.5-5.5,2.1-4,5.5-6.1,11.3-6.7,3.5-.3,5.5.9,6.9,4.1,1.9,4.2,3.6,5,8,3.7l5.3-1.6c2.6-.8,5.3-1.5,7.9-2.3h0c3.2-1,6.5-1.9,9.8-2.8h.1c3.7-1.1,6-1.8,7.3-4,1.2-2.2.5-4.5-.7-8.3v-.2c-4-12.1-13.8-19.7-27.1-20.8-8.8-.7-17.9.5-26.8,3.4-14,4.7-23.8,11.1-31.2,20.1-9,11-11.7,23.5-8.4,37.3,2.5,10,9.2,16.5,20.1,19.2,5.3,1.4,11,1.9,18,2h1.6c3.2,0,6.4,0,9.7.3,3.8.3,6.6.6,9.2,1.2,1.5.3,3.5,1.2,4.4,3,.8,1.6.6,3.8-.5,6.3-1.6,3.7-4.7,5.8-10.6,7.3-5.6,1.4-8.4,0-10.4-5.3-1.2-3.3-3.5-4.5-6.8-3.5-4.7,1.4-9.4,2.8-14.1,4.1l-8.1,2.3c-1.5.5-3,.9-4.5,1.4l-4.5,1.5v3.4c0,.8-.1,1.7,0,2.6,1.5,7,4.4,12.5,8.9,16.8,6,5.7,13.8,8.6,23.8,9h1.8c8.9,0,18-1.9,27.8-5.9,12.1-4.9,21-11.8,27.3-21.2,7.6-11.2,10-22.1,7.3-33.2v.2ZM490.6,378.6c-5.7-3.8-9.3-9.2-10.8-16h0c-3.8-17.5,1.9-32.6,17.1-44.8,9.5-7.7,21.1-12.5,35.3-14.8,7.6-1.2,14.3-1,20.6.8,11.4,3.2,18.8,11.4,21.5,23.6.2,1,.1,2,0,2.9v3.3l-18,5.3c-4.5,1.3-9.1,2.7-13.6,4-2.2.7-5.2.6-6.9-3.3-1.8-4.3-4-5.5-8.6-4.7-3.8.6-6.2,1.8-7.9,3.8-1.1,1.3-1.9,2.6-2.3,3.8-.7,1.8-.7,3.5,0,4.9.8,1.4,2.3,2.6,4.4,3.1,3.6,1,7.4,1.2,11.4,1.4h.2c1.4,0,2.8.1,4.2.3l5.7.5c4.5.3,9.1.6,13.6,1.2,4.2.5,8.4,2,12.3,4.5,7.5,4.7,11.6,12.2,12.1,22.3.6,12.9-3.9,24.5-13.5,34.4-9.8,10.2-22.6,16.5-39,19.4-3.6.6-7,1-10.4,1s-6.6-.3-9.7-1c-12.6-2.6-20.7-10-24.1-22.1-.3-.8-.5-1.6-.6-2.3h0c-1.1-4.4.2-6.8,4.4-8,4.5-1.3,9-2.6,13.5-3.9,4.5-1.3,9-2.6,13.5-3.9.7-.3,1.3-.3,1.8-.3l2.5-.3,1.9,3.5c.3.8.6,1.5.8,2.2,1.2,3.5,5.3,4.5,7.7,4.1,3.6-.6,6.3-1.6,8.6-3.1,2.6-1.8,4.2-3.9,4.8-6.6.8-3.6-.6-6.1-4-7.2-3.4-1.1-7.1-1.3-11-1.4l-4.9-.2h-.6s0,0,0,0h0c-5.6-.3-11.4-.5-17.1-1-5.7-.5-10.8-2.2-15.1-5.1ZM418.7,460.7c-.5-4.6-.8-9.2-1.2-13.9l-2.1-23.7,2.7-.8c3.6-1.1,7.1-2.1,10.7-3.1,14-3.9,24.1-9.6,32-18,12.3-13.1,16.3-28.4,11.6-45.4-2.7-10-9-16.8-18.6-20.3-8.2-3-17.1-3.1-27.1-.5-10.8,2.9-21.5,6-32.1,9.1h0c-1.4.4-2.9.8-4.3,1.2l-13.4,3.9c-4,1.2-5.1,2.8-4.7,6.8.3,3.5.6,7,1,10.6l1.7,19.4c.4,5,.8,10.1,1.3,15.1.3,2.7.5,5.4.8,8.1.3,2.7.5,5.4.8,8.1.5,4.9,1,9.8,1.4,14.7v1.5c.1,0,.1,0,.1,0,.5,6,1.1,12.1,1.7,18l1.1,12.1c.1.9.2,1.8.3,2.8h0c0,.9.2,1.7.2,2.6l.3,2.5,1,2.9h3.6c.5,0,.9,0,1.5-.2,4.3-1.2,8.6-2.5,12.9-3.7h0c4.3-1.2,8.6-2.5,12.9-3.7,2.9-.8,4.3-3.1,4.1-6.1h-.1ZM410.6,370.7l7.3-2.1c.3,0,.5-.2.8-.2l.6-.2h0c2-.6,4-1.2,6-1.7.9-.2,1.8-.4,2.6-.5h.2c2.9-.4,5.1,0,6.5,1.2,1.9,1.6,2.5,4.5,2.7,6.6.6,7.6-2.5,12.1-10.2,15-3.7,1.4-7.7,2.5-11.4,3.5-1,.3-1.9.5-2.9.8l-2.1-22.3ZM343.1,525c0-.5,0-1,0-1.4h.1c0-.4,0-.8,0-1.2-.2-1.9.1-5.2,4.6-6.4,6.5-1.8,13-3.7,19.5-5.6l9.9-2.9,1.1,2.7c.5,1,.9,1.8,1,2.9.4,3.7.7,7.5,1,11.2.2,1.9.3,3.7.5,5.6.2,1.9.4,3.7.5,5.6.3,3.4.6,6.7,1,10.1v1c.5,4,.9,7.9,1.3,11.7.2,2,.4,4,.5,6,0,1,.2,1.9.2,2.9.2,2.7.4,5.4.6,8.1v1.6c.7,5.9,1.2,11.8,1.8,17.8l1.4,14.2c.2,2,.4,4,.5,6.1.4,3.9.7,7.7,1,11.6.4,4.2-.8,6-4.7,7.2-4.3,1.2-8.5,2.5-12.8,3.7-4.3,1.2-8.5,2.4-12.8,3.7-.7.3-1.3.3-1.8.3h-2.7l-1.4-4c-.3-1.1-.5-2.1-.6-3.2-.3-2.5-.5-5.1-.6-7.6h0c-.3-3.1-.5-6-.8-9h0c-.3-2.9-.6-5.7-.9-8.6h0s0-.9,0-.9c-.3-2.7-.6-5.4-.8-8.1-.1-1.6-.3-3.2-.4-4.8-.1-1.6-.3-3.2-.4-4.8-.1-1.4-.2-2.8-.3-4.2-.1-1.5-.2-3-.4-4.5-.3-3.8-.7-7.7-1.1-11.6l-.9-9.3c-.5-5.1-.9-10.1-1.4-15.2-.5-5-.9-10.1-1.4-15.1l-.5-5.5Z"/>
  </g>
</svg>