<svg width="16" height="14" viewBox="0 0 16 14" fill="none" xmlns="http://www.w3.org/2000/svg">
<g clip-path="url(#clip0_2094_68)">
<path d="M15.4185 5.82309C15.3844 5.87011 15.3409 5.91014 15.2907 5.94089C15.2405 5.97163 15.1845 5.99248 15.126 6.00224C15.0674 6.012 15.0074 6.01047 14.9494 5.99775C14.8915 5.98503 14.8367 5.96136 14.7882 5.9281L13.9696 5.37505V13.0548C13.9696 13.2172 13.9028 13.373 13.7839 13.4879C13.665 13.6028 13.5038 13.6673 13.3357 13.6673H10.2567C10.0885 13.6673 9.92729 13.6028 9.80841 13.4879C9.68953 13.373 9.62274 13.2172 9.62274 13.0548V10.2177C9.62161 9.99677 9.57268 9.77847 9.47911 9.57683C9.38554 9.3752 9.24939 9.19469 9.07939 9.04689C8.91047 8.89832 8.71113 8.78571 8.49428 8.71636C8.27743 8.64701 8.04792 8.62248 7.82062 8.64435C7.41294 8.69775 7.03958 8.89349 6.77098 9.19463C6.50238 9.49577 6.35713 9.88149 6.36263 10.279V13.0548C6.36263 13.2172 6.29584 13.373 6.17696 13.4879C6.05808 13.6028 5.89684 13.6673 5.72872 13.6673H2.64972C2.4816 13.6673 2.32036 13.6028 2.20148 13.4879C2.0826 13.373 2.01581 13.2172 2.01581 13.0548V5.37505L1.21165 5.9281C1.11362 5.99411 0.992562 6.01999 0.874864 6.00012C0.757166 5.98025 0.652367 5.91623 0.583305 5.82202C0.514243 5.7278 0.486517 5.61103 0.506169 5.49714C0.52582 5.38326 0.591257 5.2815 0.688219 5.21404L7.63045 0.448345C7.7376 0.373983 7.8662 0.333984 7.99812 0.333984C8.13004 0.333984 8.25864 0.373983 8.36579 0.448345L15.3044 5.21404C15.3535 5.24662 15.3954 5.28828 15.4277 5.33661C15.4601 5.38493 15.4822 5.43896 15.4928 5.49559C15.5034 5.55221 15.5023 5.61031 15.4895 5.66652C15.4768 5.72273 15.4526 5.77595 15.4185 5.82309Z" fill="#B1BAD2"/>
</g>
<defs>
<clipPath id="clip0_2094_68">
<rect width="16" height="14" fill="white"/>
</clipPath>
</defs>
</svg>
