<?xml version="1.0" encoding="UTF-8"?>
<svg id="Layer_1" data-name="Layer 1" xmlns="http://www.w3.org/2000/svg" version="1.1" viewBox="0 0 871 716">
  <defs>
    <style>
      .cls-1 {
        fill: #fff;
        stroke-width: 0px;
      }
    </style>
  </defs>
  <path class="cls-1" d="M87.6,340.2c-2.5,1.6-4.2,2.5-5.7,3.8-14.9,12.5-29.6,25.3-44.7,37.7-8.9,7.4-22.5,5.4-31.2-4.2-7.9-8.6-8.2-22.2.3-30,13.5-12.3,27.6-23.8,41.6-35.6,17.4-14.6,35-29.2,52.6-43.7,36.5-30.2,73-60.4,109.7-90.4,26.5-21.7,53.4-42.9,79.8-64.4,11.7-9.6,23-19.8,34.7-29.6,14.8-12.3,29.8-24.5,44.6-36.7,16.3-13.3,32.7-26.3,48.7-40,10.6-9,23.1-9.2,33.8-.5,17.7,14.8,35.6,29.2,53.4,43.8,19.7,16.2,39.5,32.6,59.2,48.8,18.9,15.6,38.1,31.1,57,46.8,21.2,17.7,42.3,35.5,63.5,53.1,16.2,13.5,32.6,26.6,48.8,40,24.2,20.1,48.1,40.4,72.3,60.4,15.6,12.9,31.6,25.3,47.4,38.1,2.7,2.2,5.5,4.6,8,7.1,10.7,10.5,11.7,23,3,32.8-9.9,10.9-22.8,11.3-34.8,1.1-14.3-12.1-28.7-24.2-43.1-36.1-.9-.8-2.2-1-4.3-2.1-.3,2.7-.8,4.9-.8,7v344.4c0,15.3-8.9,24.2-24.5,24.1-123.7,0-247.3-.1-371-.2-86.9,0-173.7-.1-260.6-.2-6,0-12.3.5-18.1-.6-12.3-2.2-17.8-9.2-17.8-21.4v-321.6c0-8.3,0-16.8-.1-25.1,0-1.8-.8-3.8-1.4-6.6h-.1ZM134.8,483.7h.5v169.9c0,14.9,0,15.2,15.2,15.2,44.5,0,88.9,0,133.3-.2,13.9,0,14-.6,14-14.9v-242.3c0-16.3,11.1-27.4,27.6-27.3,8.1,0,16.3.2,24.4.2,65.8,0,131.6-.2,197.4-.2s25.2,12.1,25.2,23.6c0,84.4,0,168.6-.2,253,0,6.2,1.5,9.4,8.1,8.2,1.5-.2,3.1,0,4.6,0,44.5,0,88.9.2,133.3,0,16.3,0,16.3-.6,16.3-16.9v-269.8c0-24.9.7-49.8.5-74.7,0-3.9-2.6-8.8-5.6-11.3-18-15.5-36.6-30.4-55-45.6-10.1-8.4-20.2-16.9-30.4-25.2-14.4-11.6-29-23-43.1-34.8-23-19.2-45.6-38.7-68.6-57.8-30.8-25.5-61.9-50.7-92.7-76.2-3.5-3-5.6-2.7-9,.2-14.9,13-30,25.8-45.3,38.3-18.6,15.3-37.4,30.3-56,45.6-22.5,18.5-44.8,37.2-67.4,55.8-15.4,12.8-31.1,25.2-46.5,37.9-25.1,20.6-50.1,41.3-74.8,62.1-2.9,2.4-5.5,7-5.5,10.5-.3,59-.2,117.9-.2,176.9v-.2ZM343.9,550.6v111.9c0,4.9,2.1,6.6,6.8,6.6h169c4.7,0,6.5-2.1,6.6-6.3v-207.9c0-5.8.2-11.6,0-17.6-.2-4.7-2.1-7-7.6-7-55.3.2-110.6.3-165.9,0-7,0-8.8,2.4-8.8,8.8.1,37.1,0,74.1,0,111.2v.2Z"/>
</svg>