<svg width="18" height="16" viewBox="0 0 18 16" fill="none" xmlns="http://www.w3.org/2000/svg">
<g clip-path="url(#clip0_2094_70)">
<path d="M15.6415 10.4339C15.6422 10.4314 15.6425 10.4288 15.6438 10.4263C16.6397 9.973 17.3347 8.97484 17.3347 7.81635C17.3347 6.69963 16.6892 5.73239 15.7508 5.25759C15.7536 5.20356 15.7456 5.14837 15.7251 5.09469C14.664 2.34642 11.9615 0.5 9.00075 0.5C6.04118 0.5 3.33923 2.34603 2.27764 5.0935C2.25676 5.14753 2.24936 5.20307 2.25218 5.25768C1.31381 5.73215 0.667969 6.69963 0.667969 7.81644C0.667969 9.39981 1.96329 10.6881 3.55598 10.6881C3.77834 10.6881 3.95892 10.5082 3.95892 10.2871V5.3459C3.95892 5.12442 3.77834 4.94495 3.55598 4.94495C3.43817 4.94495 3.32341 4.95393 3.20923 4.9677C4.25205 2.75806 6.52437 1.30204 9.00082 1.30204C11.4782 1.30204 13.7504 2.75821 14.7936 4.9677C14.6796 4.95405 14.5646 4.94495 14.4469 4.94495C14.2245 4.94495 14.044 5.12441 14.044 5.3459V10.2871C14.044 10.5082 14.2245 10.6881 14.4469 10.6881C14.5079 10.6881 14.5678 10.6826 14.6277 10.6788C13.7972 12.2085 12.3704 13.3403 10.6791 13.7963C10.482 13.5212 10.1603 13.3397 9.79555 13.3397H8.20803C7.60923 13.3397 7.12205 13.8244 7.12205 14.4196C7.12205 15.0154 7.60938 15.5 8.20803 15.5H9.79555C10.3402 15.5 10.7881 15.0978 10.8654 14.5763C13.0051 14.0075 14.7758 12.4807 15.6415 10.4339Z" fill="#B1BAD2"/>
</g>
<defs>
<clipPath id="clip0_2094_70">
<rect width="18" height="16" fill="white"/>
</clipPath>
</defs>
</svg>
