<?xml version="1.0" encoding="UTF-8"?>
<svg id="Layer_1" data-name="Layer 1" xmlns="http://www.w3.org/2000/svg" version="1.1" viewBox="0 0 853 858">
  <defs>
    <style>
      .cls-1 {
        fill: #fff;
        stroke-width: 0px;
      }
    </style>
  </defs>
  <path class="cls-1" d="M381.4,272.8h21.1c1.2,0,1.8-.5,1.8-1.5s0-.6-.2-.8l-35.9-112.5c-.3-1.1-1.1-1.7-2.2-1.7h-26.1c-1.1,0-1.8.6-2.2,1.7l-35.9,112.5c-.2.8-.2,1.4.2,1.8.3.3.8.5,1.5.5h21.1c1.1,0,1.8-.6,2.2-1.7l4.8-16.3c.2-.4.5-.7.8-.7h40.9c.3,0,.6.2.8.7l5,16.3c.3,1.1,1.1,1.7,2.2,1.7ZM367.5,236h-29.3c-.6,0-.8-.3-.7-1l14.6-49.4c.1-.3.3-.5.5-.5.2-.1.4,0,.5.5l15,49.4c.2.7,0,1-.7,1Z"/>
  <path class="cls-1" d="M553.8,405.6c-3.4,0-6.7.3-10,.8,8.2-9.5,12.6-21.2,12.6-33.5,0-30.3-27.2-54.9-60.6-54.9s-60.6,24.6-60.6,54.9,4.4,24,12.6,33.5c-3.3-.5-6.6-.8-10-.8-33.4,0-60.6,24.6-60.6,54.9s27.2,54.9,60.6,54.9,31.6-6,42.9-16.2c-9.6,25.6-22.5,52-22.6,52.3l-1.8,3.7h79l-1.7-3.6c-.2-.3-13-28.2-22.3-52,11.2,10,26.5,15.8,42.5,15.8,33.4,0,60.6-24.6,60.6-54.9s-27.2-54.9-60.6-54.9Z"/>
  <path class="cls-1" d="M838.7,631.4l-83.6-211.4V129.1c0-21.2-17.2-38.4-38.4-38.4h-91.8l-21.7-54.9c-7.8-19.7-30.2-29.4-49.9-21.6l-193.4,76.5h-85.1c-21.2,0-38.4,17.2-38.4,38.4v10.4l-94,37.2c-9.5,3.8-17.1,11-21.1,20.5-4.1,9.4-4.2,19.9-.5,29.4l87.3,220.7c-1.8,0-3.5-.1-5.3-.1h-1.3s0,0,0,0c-49.2,0-95.4,19.2-130.2,54.2-34.7,34.8-53.6,80.8-53.3,129.5.2,100.4,81.9,182.5,182.1,183.1.3,0,.7,0,1,0,19.9,0,39.4-3.2,57.8-9.2,4.9,2.2,10.2,3.5,15.9,3.5h75.9l5.6,14.2c3.8,9.5,11,17.1,20.5,21.1,4.9,2.1,10.1,3.2,15.3,3.2s9.6-.9,14.1-2.7l90.4-35.8h220.2c21.2,0,38.4-17.2,38.4-38.4v-63.8l62-24.5c9.5-3.8,17-11,21.1-20.5,4.1-9.4,4.2-19.9.5-29.4ZM242,463.6c-2.2,8.2-4.4,16.2-6.5,24.3l-1.2,4.5c-11-2.6-21.9-3.8-32.8-3.8s-21.8,1.3-32.9,3.8c-2.6-9.6-5.1-19-7.8-28.8,27.1-6.5,53.7-6.5,81.3,0ZM77,512.1l20.5,20.6c-1.8,2.5-3.6,5-5.5,7.5-4.6,6.3-9.4,12.8-13.4,19.6h0c-3.9,6.8-7.1,14.1-10.3,21.3-1.2,2.8-2.5,5.7-3.8,8.6l-28-7.5c7.8-26.5,21-49.4,40.5-70.1ZM76.6,748.3c-18.7-19.7-32.2-43.1-40.1-69.6,9.6-2.6,19-5.1,28.9-7.7,6.5,21.3,17.4,40.3,32.5,56.4l-21.2,21ZM160.7,797.2l7.8-28.8c22.4,5.1,43.9,5,65.7,0,2,7.3,4,14.6,6,22l1.8,6.8c-27,6.5-53.6,6.5-81.3,0ZM200.6,758.2c-34.4-.3-66.5-13.9-90.4-38.1-23.9-24.3-36.9-56.5-36.6-90.7.6-70.2,58.1-127,128.2-126.6,34.5.2,66.7,13.6,90.7,37.8,24,24.2,37.1,56.5,36.9,90.9-.2,34.1-13.7,66.1-38.1,90.1-24.3,24-56.5,37-90.6,36.7ZM337.5,589.9c-6.4-21.2-17.4-40.1-32.5-56.4l21-20.9c17.2,16.6,33.6,45,40.2,69.6-9.5,2.6-19,5.1-28.8,7.7ZM366.3,678.7c-7.9,26.6-21.5,50.1-40.5,70l-21.1-20.9c11.2-13.7,17-21.7,21.2-29.2,4.1-7.4,6.9-14.8,11-26l.6-1.6c7.2,1.9,14.4,3.9,21.7,5.8l7,1.9ZM734.6,769.6c0,9.9-8,17.9-17.9,17.9h-420.9c12.7-7.7,24.6-17,35.4-27.8,35-35.1,54.1-81.6,53.8-131.1-.3-48.1-19.6-93.6-54.2-127.9-21.2-21-46.5-36.3-74-45V129.1c0-9.9,8-17.9,17.9-17.9h442c9.9,0,17.9,8,17.9,17.9v640.5Z"/>
  <path class="cls-1" d="M278,552.8c-9.2-9.1-19.9-16.4-31.4-21.6l-6.4-2.7c-12.6-4.8-26.2-7.2-40.2-7-28.9.3-55.8,11.7-76,32.2-20.1,20.4-31.2,47.7-31.3,76.7,0,28.9,11.3,56.1,31.8,76.7,20.6,20.6,47.9,31.9,77,31.9h.2c28.9,0,56.1-11.4,76.7-32,20.6-20.6,31.8-47.9,31.8-76.7,0-29.4-11.5-56.9-32.2-77.3ZM200.9,721.4h-.1c-24.4,0-47.2-9.6-64.2-27.1-17.1-17.4-26.4-40.7-26.4-65.5,0-23.8,9.6-46.3,27-63.4,17.3-17.1,40.1-26.5,64.1-26.5h.1c50.4,0,91.4,41.1,91.3,91.5,0,50.2-41.2,91-91.8,91Z"/>
</svg>