<?xml version="1.0" encoding="UTF-8"?>
<svg id="Layer_1" data-name="Layer 1" xmlns="http://www.w3.org/2000/svg" version="1.1" viewBox="0 0 777 777">
  <defs>
    <style>
      .cls-1 {
        fill: #fff;
        stroke-width: 0px;
      }
    </style>
  </defs>
  <path class="cls-1" d="M683.7,292.3l-104.4-42.8-8.4-112.5-109.6,26.8-72.9-86.1-72.9,86.1-109.6-26.8-8.4,112.5-104.4,42.8,59.3,96-59.3,96,104.4,42.8,8.4,112.5,109.6-26.8,72.9,86.1,72.9-86.1,109.6,26.8,8.4-112.5,104.4-42.8-59.3-96,59.3-96ZM290.3,459c0,.9-.3,1.6-.8,2.1-.5.5-1.2.8-2.1.8h-28.8c-1.5,0-2.7-.6-3.4-1.9l-38.9-64.8c-.3-.4-.5-.5-.8-.4-.3,0-.4.3-.4.8l.4,63.5c0,.9-.3,1.6-.8,2.1-.5.5-1.2.8-2.1.8h-30.1c-.9,0-1.6-.3-2.1-.8-.5-.5-.8-1.2-.8-2.1v-127.8c0-.9.3-1.6.8-2.1s1.2-.8,2.1-.8h28.8c1.5,0,2.7.6,3.4,1.9l38.7,64.8c.3.4.5.6.8.6.3-.1.4-.4.4-1l-.2-63.5c0-.9.3-1.6.8-2.1.5-.5,1.2-.8,2.1-.8h30.1c.9,0,1.6.3,2.1.8s.8,1.2.8,2.1v127.8ZM401.9,356.2c0,.9-.3,1.6-.8,2.1-.5.5-1.2.8-2.1.8h-57c-.6,0-1,.3-1,1v17.9c0,.6.3,1,1,1h35.3c.9,0,1.6.3,2.1.8.5.5.8,1.2.8,2.1v24.8c0,.9-.3,1.6-.8,2.1-.5.5-1.2.8-2.1.8h-35.3c-.6,0-1,.3-1,1v19.8c0,.6.3,1,1,1h57c.9,0,1.6.3,2.1.8.5.5.8,1.2.8,2.1v25c0,.9-.3,1.6-.8,2.1-.5.5-1.2.8-2.1.8h-91c-.9,0-1.6-.3-2.1-.8s-.8-1.2-.8-2.1v-127.8c0-.9.3-1.6.8-2.1.5-.5,1.2-.8,2.1-.8h91c.9,0,1.6.3,2.1.8.5.5.8,1.2.8,2.1v25ZM581,331.6l-33.9,127.8c-.4,1.7-1.4,2.5-3.1,2.5h-30.5c-1.8,0-2.9-.8-3.2-2.5l-13.7-65.6c-.1-.4-.3-.6-.6-.6s-.4.2-.6.6l-12,65.4c-.4,1.8-1.4,2.7-3.1,2.7h-28.4c-.8,0-1.5-.2-2.1-.6-.6-.5-1-1.1-1.1-1.9l-37.8-127.8c-.1-.3-.2-.6-.2-1,0-1.5.9-2.3,2.7-2.3h32.4c1.7,0,2.7.8,3.1,2.5l16.2,62.2c.1.4.3.6.6.8.3,0,.4-.3.6-.8l12.8-62.2c.4-1.7,1.5-2.5,3.2-2.5h27.8c1.7,0,2.7.8,3.1,2.5l14.3,62.2c.1.5.3.8.6.8s.4-.3.6-.8l14.3-62.2c.4-1.7,1.4-2.5,3.1-2.5h32.6c1,0,1.7.3,2.1,1,.5.5.6,1.3.4,2.3Z"/>
  <path class="cls-1" d="M757.4,268.3l-130.4-53.4-10.5-140.6-136.9,33.5L388.3.2l-91.1,107.6-136.9-33.5-10.5,140.6-130.4,53.4,74.1,119.9-74.1,119.9,130.4,53.4,10.5,140.6,136.9-33.5,91.1,107.6,91.1-107.6,136.9,33.5,10.5-140.6,130.4-53.4-74.1-119.9,74.1-119.9ZM721.4,496.4l-117.7,48.2-9.5,126.9-123.6-30.2h0s-82.2,97.1-82.2,97.1l-82.2-97.1-123.6,30.2-9.5-126.9-117.7-48.2,66.9-108.2-66.9-108.2,117.7-48.2,9.5-126.9,123.6,30.2h0s82.2-97.1,82.2-97.1l82.2,97.1,123.6-30.2,9.5,126.9,117.7,48.2-66.9,108.2h0s66.9,108.2,66.9,108.2Z"/>
</svg>