<svg width="20" height="20" viewBox="0 0 20 20" fill="none" xmlns="http://www.w3.org/2000/svg">
<path fill-rule="evenodd" clip-rule="evenodd" d="M11.5723 7.31738L13.1059 8.84706C13.4122 9.15293 13.5844 9.56772 13.5844 10.0001V16.5219C13.5844 16.6168 13.5763 16.7094 13.5609 16.7997L14.8458 16.456C15.3688 16.3165 15.6793 15.78 15.5391 15.258L13.8469 8.95859C13.7799 8.70782 13.6155 8.49424 13.3903 8.36446L11.5723 7.31738Z" fill="#B1BAD2"/>
<path fill-rule="evenodd" clip-rule="evenodd" d="M6.56182 7.4696L4.71895 9.30842C4.53493 9.49168 4.43164 9.74049 4.43164 10.0001V16.5218C4.43164 17.0622 4.87062 17.5001 5.41223 17.5001H11.9495C12.4911 17.5001 12.9301 17.0622 12.9301 16.5218V10.0001C12.9301 9.74049 12.8268 9.49168 12.6428 9.30842L10.7999 7.4696C11.3092 6.94199 11.6227 6.22459 11.6227 5.4348C11.6227 3.81512 10.3044 2.5 8.68088 2.5C7.05735 2.5 5.7391 3.81512 5.7391 5.4348C5.7391 6.22459 6.05256 6.94199 6.56182 7.4696ZM10.3378 7.00851C10.7287 6.59894 10.9689 6.04459 10.9689 5.4348C10.9689 4.17512 9.94356 3.15218 8.68088 3.15218C7.4182 3.15218 6.39283 4.17512 6.39283 5.4348C6.39283 6.04655 6.63438 6.60221 7.0276 7.0121C7.44403 7.44645 8.03108 7.71743 8.68088 7.71743C8.86131 7.71743 9.00775 7.57134 9.00775 7.39134C9.00775 7.21134 8.86131 7.06525 8.68088 7.06525C8.20987 7.06525 7.78494 6.86601 7.48652 6.5471L7.9876 6.04753C8.37036 5.66535 8.9914 5.66535 9.37416 6.04753L10.3378 7.00851Z" fill="#B1BAD2"/>
</svg>
