<svg width="12" height="16" viewBox="0 0 12 16" fill="none" xmlns="http://www.w3.org/2000/svg">
<g clip-path="url(#clip0_2094_72)">
<path d="M11.5439 4.01772V1.60752C11.5439 0.997051 11.0299 0.5 10.4002 0.5H1.60247C0.971097 0.5 0.457031 0.997051 0.457031 1.60752V4.01772C0.457031 4.06776 0.476007 4.1178 0.508783 4.15616L2.26834 6.17606C1.15568 7.15848 0.457031 8.57124 0.457031 10.1391C0.457031 13.0947 2.94283 15.4999 5.99962 15.4999C9.05641 15.4999 11.5422 13.0947 11.5422 10.1391C11.5422 8.57124 10.8436 7.16015 9.73091 6.17939L11.4905 4.15783C11.525 4.1178 11.5439 4.06943 11.5439 4.01772ZM5.62529 1.59752C5.62529 1.39736 5.79262 1.2339 6.00135 1.2339C6.10485 1.2339 6.198 1.27393 6.26701 1.34065C6.33428 1.4057 6.37741 1.49744 6.37741 1.59752V5.0702C6.37741 5.27036 6.21008 5.43382 6.00135 5.43382C5.79434 5.43382 5.62529 5.27202 5.62529 5.0702V1.59752ZM2.86175 1.58084C2.86175 1.38902 3.02218 1.2339 3.22056 1.2339H3.25334C3.45172 1.2339 3.61215 1.38902 3.61215 1.58084V4.54313C3.61215 4.73494 3.45172 4.89006 3.25334 4.89006H3.22056C3.02218 4.89006 2.86175 4.73494 2.86175 4.54313V1.58084ZM8.95291 9.78051L7.7195 10.9431L8.01103 12.5843C8.03173 12.7061 7.98171 12.8295 7.8782 12.9013C7.81955 12.943 7.75055 12.963 7.68155 12.963C7.62807 12.963 7.5746 12.9513 7.52629 12.9263L6.00307 12.1507L4.4764 12.9263C4.36427 12.983 4.22627 12.9746 4.12277 12.9013C4.01926 12.8279 3.96751 12.7061 3.98994 12.5843L4.28147 10.9431L3.04806 9.78218C2.95663 9.69545 2.92386 9.56701 2.96353 9.45026C3.00321 9.3335 3.10844 9.24677 3.23436 9.23009L4.93872 8.9899L5.70119 7.49708C5.75812 7.38699 5.87542 7.31694 6.00135 7.31694C6.129 7.31694 6.24631 7.38699 6.30151 7.49708L7.06398 8.9899L8.76833 9.23009C8.89426 9.24843 8.99949 9.3335 9.03916 9.45026C9.07712 9.56534 9.04434 9.69545 8.95291 9.78051ZM9.13749 4.54313C9.13749 4.73494 8.97706 4.89006 8.77868 4.89006H8.74591C8.54752 4.89006 8.3871 4.73494 8.3871 4.54313V1.58084C8.3871 1.38902 8.54752 1.2339 8.74591 1.2339H8.77868C8.97706 1.2339 9.13749 1.38902 9.13749 1.58084V4.54313Z" fill="#B1BAD2"/>
</g>
<defs>
<clipPath id="clip0_2094_72">
<rect width="12" height="16" fill="white"/>
</clipPath>
</defs>
</svg>
