<?xml version="1.0" encoding="UTF-8"?>
<svg id="Layer_1" data-name="Layer 1" xmlns="http://www.w3.org/2000/svg" xmlns:xlink="http://www.w3.org/1999/xlink" viewBox="0 0 45 21.31">
  <defs>
    <style>
      .cls-1 {
        fill: url(#linear-gradient-8);
      }

      .cls-2 {
        fill: url(#linear-gradient-7);
      }

      .cls-3 {
        fill: url(#linear-gradient-5);
      }

      .cls-4 {
        fill: url(#linear-gradient-6);
      }

      .cls-5 {
        fill: url(#linear-gradient-9);
      }

      .cls-6 {
        fill: url(#linear-gradient-4);
      }

      .cls-7 {
        fill: url(#linear-gradient-3);
      }

      .cls-8 {
        fill: url(#linear-gradient-2);
      }

      .cls-9 {
        fill: url(#linear-gradient);
      }

      .cls-10 {
        fill: url(#linear-gradient-10);
      }

      .cls-11 {
        fill: url(#linear-gradient-11);
      }

      .cls-12 {
        fill: url(#linear-gradient-12);
      }

      .cls-13 {
        fill: url(#linear-gradient-13);
      }

      .cls-14 {
        fill: url(#linear-gradient-19);
      }

      .cls-15 {
        fill: url(#linear-gradient-14);
      }

      .cls-16 {
        fill: url(#linear-gradient-21);
      }

      .cls-17 {
        fill: url(#linear-gradient-20);
      }

      .cls-18 {
        fill: url(#linear-gradient-22);
      }

      .cls-19 {
        fill: url(#linear-gradient-23);
      }

      .cls-20 {
        fill: url(#linear-gradient-28);
      }

      .cls-21 {
        fill: url(#linear-gradient-25);
      }

      .cls-22 {
        fill: url(#linear-gradient-30);
      }

      .cls-23 {
        fill: url(#linear-gradient-15);
      }

      .cls-24 {
        fill: url(#linear-gradient-16);
      }

      .cls-25 {
        fill: url(#linear-gradient-17);
      }

      .cls-26 {
        fill: url(#linear-gradient-18);
      }

      .cls-27 {
        fill: url(#linear-gradient-27);
      }

      .cls-28 {
        fill: url(#linear-gradient-24);
      }

      .cls-29 {
        fill: url(#linear-gradient-26);
      }

      .cls-30 {
        fill: url(#linear-gradient-29);
      }

      .cls-31 {
        fill: #faad00;
      }
    </style>
    <linearGradient id="linear-gradient" x1="6.2" y1=".01" x2="6.2" y2="15.5" gradientUnits="userSpaceOnUse">
      <stop offset="0" stop-color="#e30f21"/>
      <stop offset="1" stop-color="#faad00"/>
    </linearGradient>
    <linearGradient id="linear-gradient-2" x1="17.55" x2="17.55" y2="15.5" xlink:href="#linear-gradient"/>
    <linearGradient id="linear-gradient-3" x1="28.87" x2="28.87" y2="15.5" xlink:href="#linear-gradient"/>
    <linearGradient id="linear-gradient-4" x1="39.9" y1=".01" x2="39.9" y2="15.5" xlink:href="#linear-gradient"/>
    <linearGradient id="linear-gradient-5" x1="6.28" y1="0" x2="6.28" y2="11.69" gradientUnits="userSpaceOnUse">
      <stop offset="0" stop-color="#faad00"/>
      <stop offset="1" stop-color="#e30f21"/>
    </linearGradient>
    <linearGradient id="linear-gradient-6" x1="17.55" y1="0" x2="17.55" xlink:href="#linear-gradient-5"/>
    <linearGradient id="linear-gradient-7" x1="28.87" y1="0" x2="28.87" xlink:href="#linear-gradient-5"/>
    <linearGradient id="linear-gradient-8" x1="39.9" y1="0" x2="39.9" y2="11.69" xlink:href="#linear-gradient-5"/>
    <linearGradient id="linear-gradient-9" x1="-2.09" y1="450.17" x2="-2.09" y2="460.18" gradientTransform="translate(55.31 -442.75) rotate(6.29)" xlink:href="#linear-gradient"/>
    <linearGradient id="linear-gradient-10" x1="3.22" y1="450.17" x2="3.22" y2="460.18" gradientTransform="translate(55.31 -442.75) rotate(6.29)" xlink:href="#linear-gradient"/>
    <linearGradient id="linear-gradient-11" x1="7.85" y1="450.17" x2="7.85" y2="460.18" gradientTransform="translate(55.31 -442.75) rotate(6.29)" xlink:href="#linear-gradient"/>
    <linearGradient id="linear-gradient-12" x1="11.55" y1="450.17" x2="11.55" y2="460.18" gradientTransform="translate(55.31 -442.75) rotate(6.29)" xlink:href="#linear-gradient"/>
    <linearGradient id="linear-gradient-13" x1="14.88" y1="450.17" x2="14.88" y2="460.18" gradientTransform="translate(55.31 -442.75) rotate(6.29)" xlink:href="#linear-gradient"/>
    <linearGradient id="linear-gradient-14" x1="18.31" y1="450.17" x2="18.31" y2="460.18" gradientTransform="translate(55.31 -442.75) rotate(6.29)" xlink:href="#linear-gradient"/>
    <linearGradient id="linear-gradient-15" x1="22.52" y1="450.17" x2="22.52" y2="460.18" gradientTransform="translate(55.31 -442.75) rotate(6.29)" xlink:href="#linear-gradient"/>
    <linearGradient id="linear-gradient-16" x1="25.53" y1="450.17" x2="25.53" y2="460.18" gradientTransform="translate(55.31 -442.75) rotate(6.29)" xlink:href="#linear-gradient"/>
    <linearGradient id="linear-gradient-17" x1="28.95" y1="450.17" x2="28.95" y2="460.18" gradientTransform="translate(55.31 -442.75) rotate(6.29)" xlink:href="#linear-gradient"/>
    <linearGradient id="linear-gradient-18" x1="33.6" y1="450.17" x2="33.6" y2="460.18" gradientTransform="translate(55.31 -442.75) rotate(6.29)" xlink:href="#linear-gradient"/>
    <linearGradient id="linear-gradient-19" x1="37.84" y1="450.17" x2="37.84" y2="460.18" gradientTransform="translate(55.31 -442.75) rotate(6.29)" xlink:href="#linear-gradient"/>
    <linearGradient id="linear-gradient-20" x1="-2.09" y1="457.97" x2="-2.09" y2="462.6" gradientTransform="translate(55.31 -442.75) rotate(6.29)" xlink:href="#linear-gradient-5"/>
    <linearGradient id="linear-gradient-21" x1="3.22" y1="458.01" x2="3.22" y2="462.67" gradientTransform="translate(55.31 -442.75) rotate(6.29)" xlink:href="#linear-gradient-5"/>
    <linearGradient id="linear-gradient-22" x1="7.85" y1="458.01" x2="7.85" y2="462.6" gradientTransform="translate(55.31 -442.75) rotate(6.29)" xlink:href="#linear-gradient-5"/>
    <linearGradient id="linear-gradient-23" x1="11.55" y1="458.01" x2="11.55" y2="462.6" gradientTransform="translate(55.31 -442.75) rotate(6.29)" xlink:href="#linear-gradient-5"/>
    <linearGradient id="linear-gradient-24" x1="14.88" y1="458.01" x2="14.88" y2="462.6" gradientTransform="translate(55.31 -442.75) rotate(6.29)" xlink:href="#linear-gradient-5"/>
    <linearGradient id="linear-gradient-25" x1="18.31" y1="458.01" x2="18.31" y2="462.6" gradientTransform="translate(55.31 -442.75) rotate(6.29)" xlink:href="#linear-gradient-5"/>
    <linearGradient id="linear-gradient-26" x1="22.52" y1="458.01" x2="22.52" y2="462.6" gradientTransform="translate(55.31 -442.75) rotate(6.29)" xlink:href="#linear-gradient-5"/>
    <linearGradient id="linear-gradient-27" x1="25.53" y1="458.01" x2="25.53" y2="462.6" gradientTransform="translate(55.31 -442.75) rotate(6.29)" xlink:href="#linear-gradient-5"/>
    <linearGradient id="linear-gradient-28" x1="28.95" y1="458.01" x2="28.95" y2="462.6" gradientTransform="translate(55.31 -442.75) rotate(6.29)" xlink:href="#linear-gradient-5"/>
    <linearGradient id="linear-gradient-29" x1="33.65" y1="458.01" x2="33.65" y2="462.6" gradientTransform="translate(55.31 -442.75) rotate(6.29)" xlink:href="#linear-gradient-5"/>
    <linearGradient id="linear-gradient-30" x1="37.84" y1="457.94" x2="37.84" y2="462.67" gradientTransform="translate(55.31 -442.75) rotate(6.29)" xlink:href="#linear-gradient-5"/>
  </defs>
  <g>
    <path class="cls-9" d="M.69,11.45V.23h5.78c1.07,0,1.89.09,2.46.28.57.18,1.02.52,1.37,1.02s.52,1.1.52,1.82c0,.62-.13,1.16-.4,1.61-.27.45-.63.82-1.09,1.1-.3.18-.7.33-1.22.44.41.14.71.28.9.41.13.09.31.29.55.59s.4.53.49.7l1.68,3.25h-3.92l-1.85-3.43c-.23-.44-.44-.73-.63-.86-.25-.17-.53-.26-.85-.26h-.31v4.55H.69ZM4.17,4.78h1.46c.16,0,.46-.05.92-.15.23-.05.42-.16.56-.35.15-.19.22-.41.22-.65,0-.36-.11-.64-.34-.83s-.66-.29-1.29-.29h-1.52v2.28Z"/>
    <path class="cls-8" d="M12.82.23h9.29v2.39h-5.82v1.78h5.39v2.29h-5.39v2.21h5.98v2.54h-9.46V.23Z"/>
    <path class="cls-7" d="M24.14.23h9.29v2.39h-5.82v1.78h5.39v2.29h-5.39v2.21h5.98v2.54h-9.46V.23Z"/>
    <path class="cls-6" d="M35.46.23h3.47v8.46h5.41v2.76h-8.88V.23Z"/>
  </g>
  <g>
    <path class="cls-3" d="M12.1,11.69h-4.44l-1.92-3.55c-.27-.51-.45-.71-.56-.79-.21-.14-.44-.22-.71-.22h-.07v4.55H.45V0h6.01c1.09,0,1.94.1,2.53.29.61.2,1.11.57,1.49,1.11.37.54.56,1.19.56,1.95,0,.66-.14,1.24-.43,1.73-.28.48-.68.88-1.18,1.18-.17.1-.38.2-.61.28.12.06.23.12.32.19.14.1.34.31.6.63.25.32.42.56.51.74l1.85,3.59ZM7.94,11.22h3.39l-1.5-2.91c-.08-.15-.23-.37-.46-.66-.28-.35-.43-.49-.51-.55-.17-.12-.45-.25-.84-.38l-.79-.26.81-.19c.49-.11.88-.25,1.15-.42.43-.26.77-.6,1.01-1.02.24-.41.37-.91.37-1.49,0-.66-.16-1.23-.48-1.68-.32-.46-.73-.76-1.25-.93-.54-.18-1.34-.26-2.38-.26H.92v10.75h3.01v-4.55h.54c.36,0,.69.1.98.3.22.16.45.47.7.95l1.79,3.3ZM5.63,5.01h-1.7v-2.75h1.76c.7,0,1.17.11,1.44.35.28.24.43.58.43,1.01,0,.3-.09.56-.27.79-.18.23-.42.38-.7.44-.47.11-.79.16-.96.16ZM4.4,4.55h1.23c.1,0,.33-.03.87-.15.18-.04.32-.12.43-.27.11-.15.17-.31.17-.51,0-.29-.09-.51-.26-.66-.13-.11-.43-.24-1.14-.24h-1.29v1.81Z"/>
    <path class="cls-4" d="M22.51,11.69h-9.93V0h9.76v2.86h-5.82v1.31h5.39v2.76h-5.39v1.74h5.98v3.01ZM13.06,11.22h8.99v-2.07h-5.98v-2.68h5.39v-1.82h-5.39v-2.25h5.82V.47h-8.82v10.75Z"/>
    <path class="cls-2" d="M33.83,11.69h-9.93V0h9.76v2.86h-5.82v1.31h5.39v2.76h-5.39v1.74h5.98v3.01ZM24.37,11.22h8.99v-2.07h-5.98v-2.68h5.39v-1.82h-5.39v-2.25h5.82V.47h-8.82v10.75Z"/>
    <path class="cls-1" d="M44.57,11.69h-9.34V0h3.93v8.45h5.41v3.23ZM35.7,11.22h8.41v-2.29h-5.41V.47h-3v10.75Z"/>
  </g>
  <g>
    <path class="cls-5" d="M.64,12.16l1.73.19.38,2.67.95-2.52,1.73.19-.47,4.26-1.08-.12.36-3.25-1.19,3.16-.98-.11-.47-3.34-.36,3.25-1.08-.12.47-4.26Z"/>
    <path class="cls-10" d="M9.04,13.08l1.31.14-.28,2.54c-.03.25-.09.49-.2.7-.1.21-.25.4-.43.55-.19.15-.37.25-.57.29-.27.07-.58.08-.94.04-.21-.02-.43-.06-.67-.12-.24-.06-.44-.14-.6-.24-.16-.1-.29-.24-.41-.42-.12-.17-.19-.35-.23-.52-.05-.28-.07-.52-.04-.73l.28-2.54,1.31.14-.29,2.6c-.03.23.02.42.13.57.11.14.29.23.51.26s.41-.02.55-.13c.14-.11.23-.29.25-.53l.29-2.6Z"/>
    <path class="cls-11" d="M11.23,13.32l1.32.15-.35,3.21,2.05.23-.12,1.05-3.37-.37.47-4.26Z"/>
    <path class="cls-12" d="M14.6,13.69l4,.44-.12,1.05-1.34-.15-.35,3.21-1.32-.15.35-3.21-1.34-.15.12-1.05Z"/>
    <path class="cls-13" d="M19.25,14.21l1.32.15-.47,4.26-1.32-.15.47-4.26Z"/>
    <path class="cls-15" d="M21.51,14.46l2.19.24c.48.05.82.21,1.03.46.21.25.3.59.25,1.01s-.21.75-.5.97c-.29.21-.69.29-1.22.23l-.72-.08-.17,1.58-1.32-.15.47-4.26ZM22.63,16.42l.32.04c.25.03.44,0,.55-.07.11-.08.18-.18.19-.32s-.02-.25-.1-.35c-.08-.1-.24-.17-.49-.19l-.37-.04-.1.95Z"/>
    <path class="cls-23" d="M25.81,14.93l1.32.15-.35,3.21,2.05.23-.12,1.05-3.37-.37.47-4.26Z"/>
    <path class="cls-24" d="M29.83,15.37l1.32.15-.47,4.26-1.32-.15.47-4.26Z"/>
    <path class="cls-25" d="M32.09,15.62l3.53.39-.1.91-2.21-.24-.07.68,2.05.23-.1.87-2.05-.23-.09.84,2.27.25-.11.96-3.59-.4.47-4.26Z"/>
    <path class="cls-26" d="M35.94,20.36l.47-4.26,2.19.24c.41.04.71.11.92.21s.37.24.48.45c.11.2.15.44.12.71-.03.24-.1.43-.22.6-.12.16-.27.28-.46.37-.12.06-.28.09-.48.12.15.07.26.13.33.19.04.04.11.12.19.25s.13.22.16.29l.5,1.3-1.49-.16-.56-1.38c-.07-.18-.14-.3-.2-.35-.09-.08-.19-.12-.31-.13h-.12s-.19,1.72-.19,1.72l-1.32-.15ZM37.54,17.97l.56.06c.06,0,.18,0,.36-.02.09,0,.17-.04.23-.11.06-.07.1-.14.11-.24.02-.14-.02-.25-.1-.33-.08-.08-.24-.14-.48-.16l-.58-.06-.1.87Z"/>
    <path class="cls-14" d="M40.48,19.43l1.26.06c0,.21.04.37.11.48.12.19.3.3.55.32.19.02.34,0,.45-.08.11-.08.17-.17.19-.29s-.03-.21-.11-.31c-.09-.1-.3-.2-.65-.32-.56-.19-.96-.41-1.18-.65-.22-.24-.32-.53-.28-.86.02-.22.11-.42.26-.6.15-.18.36-.31.62-.4.27-.08.62-.1,1.07-.05.54.06.95.21,1.21.44.26.23.4.57.4,1.02l-1.25-.06c-.01-.2-.07-.34-.16-.44-.1-.1-.24-.16-.42-.18-.15-.02-.27,0-.36.06-.08.06-.13.13-.14.22,0,.07.02.13.08.19.06.06.2.13.42.21.56.19.96.36,1.2.51.23.15.4.33.49.53s.13.42.1.65c-.03.27-.13.52-.31.73-.18.21-.41.37-.69.45-.28.09-.63.11-1.05.07-.72-.08-1.21-.27-1.46-.58-.25-.31-.37-.68-.36-1.12Z"/>
  </g>
  <g>
    <path class="cls-17" d="M5.09,17.11l-1.38-.15.24-2.2-.81,2.14-1.21-.13-.32-2.26-.24,2.2-1.38-.15.5-4.56,1.08.12v-.04s0,.04,0,.04l.91.1.32,2.2.78-2.08.91.1v-.03s0,.03,0,.03l1.08.12-.5,4.56ZM4.05,16.69l.78.09.44-3.96-.78-.09-.44,3.96ZM2.21,16.49l.74.08,1.45-3.85-.6-.07-1.12,2.96-.45-3.13-.6-.07.57,4.07ZM.33,16.28l.78.09.44-3.96-.78-.09-.44,3.96Z"/>
    <path class="cls-16" d="M8.32,17.52c-.13,0-.26,0-.4-.02-.21-.02-.44-.06-.69-.12-.26-.06-.48-.15-.65-.26-.17-.11-.32-.27-.45-.46-.13-.19-.21-.39-.25-.58-.05-.29-.07-.55-.04-.78l.3-2.69,1.61.18-.3,2.75c-.02.19.01.34.1.46.09.11.22.18.41.2.19.02.33-.01.44-.1.11-.09.18-.23.2-.42l.3-2.75,1.61.18-.3,2.69c-.03.27-.1.52-.21.75-.11.23-.27.44-.48.6-.2.16-.41.27-.62.32-.18.04-.38.07-.59.07ZM6.41,12.94l-.26,2.39c-.02.19,0,.43.04.69.03.15.1.31.2.46.11.16.23.28.37.38.14.09.32.17.55.22.24.05.46.09.66.12.34.04.64.02.88-.04.17-.04.34-.13.51-.27.17-.13.3-.3.39-.49.1-.2.16-.42.18-.65l.26-2.39-1.01-.11-.27,2.45c-.03.28-.13.49-.31.63-.17.14-.4.2-.67.17-.27-.03-.48-.13-.62-.31-.14-.18-.19-.4-.16-.68l.27-2.45-1.01-.11Z"/>
    <path class="cls-18" d="M14.26,18.12l-3.67-.4.5-4.56,1.62.18-.35,3.21,2.05.23-.15,1.35ZM10.93,17.45l3.07.34.08-.75-2.05-.23.35-3.21-1.02-.11-.44,3.96Z"/>
    <path class="cls-19" d="M16.92,18.42l-1.62-.18.35-3.21-1.34-.15.15-1.35,4.3.47-.15,1.35-1.34-.15-.35,3.21ZM15.64,17.97l1.02.11.35-3.21,1.34.15.08-.75-3.7-.41-.08.75,1.34.15-.35,3.21Z"/>
    <path class="cls-28" d="M20.23,18.78l-1.62-.18.5-4.56,1.62.18-.5,4.56ZM18.94,18.33l1.02.11.44-3.96-1.02-.11-.44,3.96Z"/>
    <path class="cls-21" d="M22.49,19.03l-1.62-.18.5-4.56,2.34.26c.51.06.9.23,1.13.51.24.28.33.66.28,1.12-.05.47-.24.83-.56,1.07-.32.24-.76.32-1.33.26l-.57-.06-.17,1.58ZM21.2,18.58l1.02.11.17-1.58.87.1c.49.05.86-.01,1.12-.2.25-.19.4-.47.44-.86.04-.38-.03-.67-.21-.89-.19-.22-.5-.36-.93-.41l-2.04-.22-.44,3.96ZM23.14,16.62c-.06,0-.13,0-.2-.01l-.47-.05.14-1.25.53.06c.29.03.48.11.59.25.1.13.15.29.13.46-.02.18-.11.33-.26.43-.11.07-.26.11-.45.11ZM22.79,16.28l.17.02c.27.03.39,0,.45-.05.08-.05.12-.12.13-.21.01-.09-.01-.17-.07-.25-.03-.04-.12-.11-.38-.14l-.22-.02-.07.65Z"/>
    <path class="cls-29" d="M28.85,19.73l-3.67-.4.5-4.56,1.62.18-.35,3.21,2.05.23-.15,1.35ZM25.51,19.06l3.07.34.08-.75-2.05-.23.35-3.21-1.02-.11-.44,3.96Z"/>
    <path class="cls-27" d="M30.82,19.95l-1.62-.18.5-4.56,1.62.18-.5,4.56ZM29.53,19.5l1.02.11.44-3.96-1.02-.11-.44,3.96Z"/>
    <path class="cls-20" d="M35.35,20.45l-3.89-.43.5-4.56,3.83.42-.13,1.21-2.21-.24-.04.38,2.05.23-.13,1.17-2.05-.23-.06.54,2.27.25-.14,1.27ZM31.79,19.75l3.29.36.07-.66-2.27-.25.13-1.14,2.05.23.06-.57-2.05-.23.11-.98,2.21.24.07-.61-3.23-.36-.44,3.96Z"/>
    <path class="cls-30" d="M40.36,21l-1.82-.2-.59-1.46c-.08-.21-.14-.28-.16-.3-.05-.05-.12-.08-.19-.09l-.19,1.73-1.62-.18.5-4.56,2.34.26c.43.05.74.12.97.22.24.11.42.28.55.51.13.23.17.5.14.8-.03.26-.11.49-.25.67-.13.18-.31.32-.52.42-.04.02-.08.04-.13.05,0,0,0,0,.01.01.06.05.12.14.21.28.09.13.14.24.17.31l.59,1.53ZM38.75,20.52l1.15.13-.41-1.07s-.05-.11-.14-.26c-.09-.15-.14-.2-.16-.22-.04-.03-.12-.09-.29-.17l-.49-.23.54-.06c.18-.02.33-.06.43-.1.16-.08.3-.19.4-.32.1-.14.17-.31.19-.52.03-.24,0-.45-.1-.62-.1-.18-.23-.3-.41-.38-.19-.09-.49-.15-.88-.2l-2.04-.23-.44,3.96,1.02.11.19-1.73.27.03c.15.02.28.07.39.17.09.08.16.21.24.41l.53,1.29ZM38.16,18.19s-.06,0-.07,0l-.71-.08.13-1.17.73.08c.28.03.47.1.57.21.11.12.16.27.14.45-.01.13-.06.24-.15.33-.09.09-.2.14-.32.16-.16.02-.25.02-.31.02ZM37.71,17.84l.4.04s.11,0,.32-.02c.06,0,.1-.03.14-.06.04-.04.06-.09.07-.15.01-.12-.03-.18-.06-.21-.02-.03-.11-.09-.39-.12l-.43-.05-.06.57Z"/>
    <path class="cls-22" d="M42.69,21.31c-.13,0-.27,0-.41-.02-.77-.09-1.28-.29-1.56-.64-.27-.34-.4-.75-.39-1.21v-.15s1.56.07,1.56.07v.14c0,.18.04.32.1.41.09.15.24.23.44.25.15.02.27,0,.35-.06.1-.07.12-.14.12-.18,0-.04,0-.11-.08-.2-.04-.04-.17-.14-.58-.28-.59-.2-1-.43-1.24-.69-.25-.27-.36-.61-.32-.98.03-.25.13-.48.29-.68.17-.2.4-.35.7-.44.29-.09.67-.11,1.13-.06.57.06,1.01.22,1.3.48.3.26.45.64.45,1.13v.16s-1.29-.07-1.29-.07c.25.1.44.2.58.29.26.17.44.37.55.6.1.22.14.47.11.73-.03.3-.15.57-.34.81-.19.24-.45.41-.76.5-.2.06-.44.1-.7.1ZM40.63,19.59c.02.33.12.62.32.86.22.28.68.45,1.36.53.39.04.72.02.98-.06.25-.08.46-.22.62-.41.16-.19.25-.41.28-.65.02-.2,0-.4-.09-.57-.08-.17-.23-.33-.44-.47-.22-.15-.61-.31-1.16-.5-.26-.09-.41-.16-.49-.25-.11-.11-.12-.23-.11-.31.02-.14.09-.25.21-.33.11-.08.27-.1.46-.08.22.02.39.1.51.22.1.1.16.23.19.4l.95.05c-.03-.33-.14-.57-.34-.75-.24-.21-.62-.35-1.13-.4-.42-.05-.76-.03-1,.05-.24.07-.42.19-.55.35-.13.16-.2.33-.23.52-.03.29.05.53.24.74.2.22.58.43,1.12.61.38.13.6.24.71.36.12.13.17.28.15.43-.02.16-.1.29-.25.4-.14.1-.33.13-.55.11-.3-.03-.52-.17-.66-.39-.07-.11-.11-.25-.13-.42l-.97-.05ZM42.46,17.65c-.07,0-.13.01-.17.04-.06.04-.07.08-.08.11,0,0,0,.03.04.07.01.01.07.07.36.17.14.05.27.09.39.14v-.05c-.01-.16-.05-.27-.12-.35-.07-.07-.18-.12-.33-.13-.03,0-.06,0-.08,0Z"/>
  </g>
  <polygon class="cls-31" points="12.62 12.44 45 12.44 45 16.1 12.62 12.44"/>
</svg>