<svg width="20" height="20" viewBox="0 0 20 20" fill="none" xmlns="http://www.w3.org/2000/svg">
<path d="M9.02866 4.16699C7.80432 4.16699 6.74694 4.93129 6.15332 6.09007H11.9226C11.3289 4.93129 10.253 4.16699 9.02866 4.16699Z" fill="#B1BAD2"/>
<path d="M13.8461 7.35247C13.8461 6.65317 13.3191 6.08984 12.665 6.08984H3.48872C2.83457 6.08984 2.30762 6.65317 2.30762 7.35247V8.01292H13.8461V7.35247Z" fill="#B1BAD2"/>
<path d="M2.30762 15.4046C2.30762 16.1039 2.83457 16.6672 3.48872 16.6672H12.665C13.3191 16.6672 13.8461 16.1039 13.8461 15.4046V14.7441H2.30762V15.4046Z" fill="#B1BAD2"/>
<path d="M18.6532 6.35445C18.6532 5.67359 18.0721 5.12891 17.3458 5.12891C16.6194 5.12891 16.0383 5.67359 16.0383 6.35445C16.0383 6.89914 16.4119 7.34656 16.9307 7.52164V10.4591C16.9307 10.7898 16.6402 11.0621 16.2874 11.0621H15.7686V11.8597H16.2874C17.0967 11.8597 17.7608 11.2372 17.7608 10.4785V7.52164C18.2796 7.34656 18.6532 6.89914 18.6532 6.35445Z" fill="#B1BAD2"/>
<path d="M14.4465 8.97461H10.9619V13.7823H14.4465C14.6437 13.7823 14.8081 13.6055 14.8081 13.3934V9.36347C14.8081 9.15136 14.6437 8.97461 14.4465 8.97461ZM14.0191 11.1487L13.5918 11.6436C13.5753 11.6613 13.5589 11.6966 13.5589 11.732L13.6411 12.4036C13.6411 12.492 13.5753 12.545 13.4931 12.5097L12.9179 12.2269C12.885 12.2092 12.8521 12.2092 12.8357 12.2269L12.2604 12.5097C12.1947 12.545 12.1125 12.492 12.1125 12.4036L12.1947 11.732C12.1947 11.6966 12.1947 11.6789 12.1618 11.6436L11.7344 11.1487C11.6851 11.0957 11.718 10.9896 11.7837 10.9719L12.3919 10.8482C12.4248 10.8482 12.4412 10.8305 12.4576 10.7952L12.7699 10.2119C12.8028 10.1412 12.9014 10.1412 12.9343 10.2119L13.2466 10.7952C13.263 10.8305 13.2959 10.8482 13.3123 10.8482L13.9205 10.9719C14.0356 10.9896 14.0684 11.078 14.0191 11.1487Z" fill="#B1BAD2"/>
<path d="M9.99947 13.7823V8.97461H6.15332V13.7823H9.99947ZM7.00802 10.9719L7.61617 10.8482C7.64905 10.8482 7.66548 10.8305 7.68192 10.7952L7.99421 10.2119C8.02709 10.1412 8.12571 10.1412 8.15858 10.2119L8.47087 10.7952C8.48731 10.8305 8.52018 10.8482 8.53662 10.8482L9.14477 10.9719C9.22696 10.9896 9.25983 11.0957 9.19408 11.1487L8.76673 11.6436C8.76673 11.6613 8.76673 11.6966 8.76673 11.732L8.84892 12.4036C8.84892 12.492 8.78317 12.545 8.70099 12.5097L8.12571 12.2269C8.09283 12.2092 8.05996 12.2092 8.04352 12.2269L7.46824 12.5097C7.4025 12.545 7.32032 12.492 7.32032 12.4036L7.4025 11.732C7.4025 11.6966 7.4025 11.6789 7.36963 11.6436L6.94228 11.1487C6.89297 11.078 6.92584 10.9896 7.00802 10.9719Z" fill="#B1BAD2"/>
<path d="M5.19186 8.97461H1.70731C1.51007 8.97461 1.3457 9.15136 1.3457 9.36347V13.3934C1.3457 13.6055 1.51007 13.7823 1.70731 13.7823H5.19186V8.97461ZM4.4029 11.1487L3.97555 11.6436C3.95912 11.6613 3.95912 11.6966 3.95912 11.732L4.0413 12.4036C4.0413 12.492 3.97555 12.545 3.89337 12.5097L3.31809 12.2269C3.28522 12.2092 3.25234 12.2092 3.23591 12.2269L2.66063 12.5097C2.59488 12.545 2.5127 12.492 2.5127 12.4036L2.59488 11.732C2.59488 11.6966 2.59488 11.6789 2.56201 11.6436L2.13466 11.1487C2.08535 11.0957 2.11822 10.9896 2.18397 10.9719L2.79212 10.8482C2.82499 10.8482 2.84143 10.8305 2.85787 10.7952L3.17016 10.2119C3.20303 10.1412 3.30165 10.1412 3.33453 10.2119L3.64682 10.7952C3.66326 10.8305 3.69613 10.8482 3.71257 10.8482L4.32072 10.9719C4.41934 10.9896 4.45221 11.078 4.4029 11.1487Z" fill="#B1BAD2"/>
</svg>
